<svg width="50" height="50" viewBox="0 0 50 50" fill="none" xmlns="http://www.w3.org/2000/svg">
<path d="M5 37.1141V10.0616C5.88608 9.87946 6.78169 9.74008 7.68337 9.64471C11.5965 9.23071 15.5633 9.64902 19.3091 10.8741C21.3012 11.5257 23.2094 12.3975 25 13.4697V40.5222C23.2094 39.45 21.3012 38.5782 19.3091 37.9266C15.5633 36.7015 11.5965 36.2832 7.68337 36.6972C6.78169 36.7926 5.88608 36.932 5 37.1141Z" stroke="white" stroke-width="2" stroke-linecap="round" stroke-linejoin="round"/>
<path d="M25 13.4697C26.7906 12.3975 28.6988 11.5257 30.6909 10.8741C34.4367 9.64902 38.4035 9.23071 42.3166 9.64471C43.2183 9.74008 44.1139 9.87946 45 10.0616V37.1141C44.1139 36.932 43.2183 36.7926 42.3166 36.6972C38.4035 36.2832 34.4367 36.7015 30.6909 37.9266C28.6988 38.5782 26.7906 39.45 25 40.5222" stroke="white" stroke-width="2" stroke-linecap="round" stroke-linejoin="round"/>
</svg>
