<svg width="80" height="92" viewBox="0 0 80 92" fill="none" xmlns="http://www.w3.org/2000/svg">
<g clip-path="url(#clip0_90_17)">
<path d="M40.0178 25.1786C28.6607 25.1786 19.5 34.3394 19.5 45.6965C19.5 57.0536 28.6607 66.2144 40.0178 66.2144C51.375 66.2144 60.5357 57.0536 60.5357 45.6965C60.5357 34.3394 51.375 25.1786 40.0178 25.1786ZM40.0178 59.0358C32.6785 59.0358 26.6785 53.0536 26.6785 45.6965C26.6785 38.3394 32.6607 32.3572 40.0178 32.3572C47.375 32.3572 53.3571 38.3394 53.3571 45.6965C53.3571 53.0536 47.3571 59.0358 40.0178 59.0358V59.0358ZM66.1607 24.3394C66.1607 27.0001 64.0178 29.1251 61.375 29.1251C58.7142 29.1251 56.5892 26.9822 56.5892 24.3394C56.5892 21.6965 58.7321 19.5536 61.375 19.5536C64.0178 19.5536 66.1607 21.6965 66.1607 24.3394ZM79.75 29.1965C79.4464 22.7858 77.9821 17.1072 73.2857 12.4286C68.6071 7.75007 62.9285 6.28578 56.5178 5.96436C49.9107 5.58936 30.1071 5.58936 23.5 5.96436C17.1071 6.26793 11.4285 7.73221 6.73211 12.4108C2.03568 17.0894 0.589251 22.7679 0.267822 29.1786C-0.107178 35.7858 -0.107178 55.5894 0.267822 62.1965C0.571394 68.6072 2.03568 74.2858 6.73211 78.9644C11.4285 83.6429 17.0892 85.1072 23.5 85.4286C30.1071 85.8036 49.9107 85.8036 56.5178 85.4286C62.9285 85.1251 68.6071 83.6608 73.2857 78.9644C77.9642 74.2858 79.4285 68.6072 79.75 62.1965C80.125 55.5894 80.125 35.8036 79.75 29.1965V29.1965ZM71.2142 69.2858C69.8214 72.7858 67.125 75.4822 63.6071 76.8929C58.3392 78.9822 45.8392 78.5001 40.0178 78.5001C34.1964 78.5001 21.6785 78.9644 16.4285 76.8929C12.9285 75.5001 10.2321 72.8036 8.82139 69.2858C6.73211 64.0179 7.21425 51.5179 7.21425 45.6965C7.21425 39.8751 6.74996 27.3572 8.82139 22.1072C10.2142 18.6072 12.9107 15.9108 16.4285 14.5001C21.6964 12.4108 34.1964 12.8929 40.0178 12.8929C45.8392 12.8929 58.3571 12.4286 63.6071 14.5001C67.1071 15.8929 69.8035 18.5894 71.2142 22.1072C73.3035 27.3751 72.8214 39.8751 72.8214 45.6965C72.8214 51.5179 73.3035 64.0358 71.2142 69.2858Z" fill="white"/>
</g>
<defs>
<clipPath id="clip0_90_17">
<rect width="80" height="91.4286" fill="white"/>
</clipPath>
</defs>
</svg>
