<svg id="Layer_1" data-name="Layer 1" xmlns="http://www.w3.org/2000/svg" viewBox="0 0 565.74 177.25"><defs><style>.cls-1{fill:#fff;}.cls-2{fill:#e4032e;}</style></defs><polygon class="cls-1" points="258.65 143.94 250.26 143.94 250.26 162.3 318.62 162.3 318.62 153.92 258.65 153.92 258.65 143.94"/><polygon class="cls-1" points="230.3 149.55 169.5 149.55 169.5 157.99 230.3 157.99 230.3 162.3 238.68 162.3 238.68 110.82 230.3 110.82 230.3 149.55"/><path class="cls-1" d="M168.94,308.5a19.9,19.9,0,1,0,19.9,19.89A19.9,19.9,0,0,0,168.94,308.5Zm0,31A11.08,11.08,0,1,1,180,328.39,11.07,11.07,0,0,1,168.94,339.47Z" transform="translate(-149.04 -195.46)"/><rect class="cls-1" x="69.06" y="110.82" width="8.38" height="51.47"/><polygon class="cls-1" points="54.27 119.21 42.68 119.21 42.68 127.59 54.27 127.59 54.27 137.45 42.68 137.45 42.68 145.83 54.27 145.83 54.27 162.3 62.65 162.3 62.65 110.82 54.27 110.82 54.27 119.21"/><polygon class="cls-1" points="306.51 145.87 314.9 145.87 314.9 110.82 306.51 110.82 306.51 121.67 293.94 121.67 293.94 130.06 306.51 130.06 306.51 145.87"/><polygon class="cls-1" points="253.91 139.25 269.8 125.45 285.7 139.25 291.2 132.93 277.76 121.25 289.34 121.25 289.34 112.86 250.26 112.86 250.26 121.25 261.85 121.25 248.41 132.93 253.91 139.25"/><path class="cls-1" d="M337.52,338.93a16.39,16.39,0,1,0-16.39-16.39A16.39,16.39,0,0,0,337.52,338.93Zm0-24a7.58,7.58,0,1,1-7.57,7.58A7.59,7.59,0,0,1,337.52,315Z" transform="translate(-149.04 -195.46)"/><path class="cls-1" d="M514.13,337.23A17.74,17.74,0,1,0,531.87,355,17.74,17.74,0,0,0,514.13,337.23Zm0,26.66a8.92,8.92,0,1,1,8.92-8.92A8.91,8.91,0,0,1,514.13,363.89Z" transform="translate(-149.04 -195.46)"/><polygon class="cls-1" points="363.12 128.55 334.58 128.55 334.58 121.2 363.12 121.2 363.12 112.83 326.2 112.83 326.2 136.93 363.12 136.93 363.12 128.55"/><polygon class="cls-1" points="388.35 121.92 388.35 110.82 379.96 110.82 379.96 139.2 388.35 139.2 388.35 130.3 400.93 130.3 400.93 121.92 388.35 121.92"/><polygon class="cls-1" points="124.62 103.79 147.41 117 151.6 109.74 124.62 94.11 97.64 109.74 101.83 117 124.62 103.79"/><polygon class="cls-1" points="128.81 131.33 128.81 127.98 158.8 127.98 158.8 119.89 90.44 119.89 90.44 127.98 120.43 127.98 120.43 131.33 90.44 131.33 90.44 139.42 150.42 139.42 150.42 142.77 90.44 142.77 90.44 162.3 158.8 162.3 158.8 154.21 98.82 154.21 98.82 150.86 158.8 150.86 158.8 145.34 158.8 131.33 128.81 131.33"/><rect class="cls-2" x="408.82" width="156.92" height="102.94"/><path class="cls-1" d="M558.82,229.44c.2.09.43.07.6.19.34,0,.34-.08.42-.33.15,0,.33.09.46,0,.44-.16.38-.68.56-1.12,0-.1.19-.18.24-.28s0-.44.13-.61a1.63,1.63,0,0,0,.19-.09c.07-.09.06-.24.14-.33s.23-.07.32-.14.15-.21.23-.32l.14,0a1.89,1.89,0,0,0,0-.23c.11-.2.34-.38.46-.56s.06-.19.1-.28l.32-.28c.31-.43.57-.84.88-1.25.11-.15.3-.21.42-.34a1.31,1.31,0,0,1,.79.38c.07.08,0,.24.09.32s.27,0,.33.14,0,.26.14.33l.28,0c.14.1.2.34.37.41s.52,0,.79.14.29.39.46.52l.28.09c.08.1,0,.28.09.38a4.13,4.13,0,0,0,1.67,1.34,2,2,0,0,0,1.4-.32c.16-.11.25-.36.46-.42l.42.05c.35-.08.71-.09,1.12-.19,1.18-.28,2.52-.61,3.62-.93l.55-.05c.16-.06.35-.26.52-.32l.32-.05c.09-.07.07-.25.14-.33s.2-.08.28-.14a2.39,2.39,0,0,0,.7-1.53,8.5,8.5,0,0,0,1.71-.84l.47-.14c.18-.12.2-.44.37-.57l.46-.13a10.19,10.19,0,0,0,1-1.31c.14-.26,0-.58.15-.89a6.1,6.1,0,0,0-1-4.57c-.14-.21-.43-.27-.57-.47-1.09-1.56-3-2.38-4.59-3.45-.53-.36-1.23-.43-1.77-.79-.11-.08-.12-.29-.23-.38s-.37-.11-.5-.22c-.53-.44-1-.86-1.58-1.27l-.38-.37a4.39,4.39,0,0,1-.88-.56c0-.08-.06-.15-.1-.24-.19-.2-.53-.37-.69-.6s-.09-.25-.14-.38-.42-.3-.56-.5-.25-.53-.42-.75-.12-.52-.23-.79a3.19,3.19,0,0,1-.56-2.19,7.2,7.2,0,0,1,.51-1c0-.17.07-.34.1-.51s.52-.89.55-.93.23-.11.33-.18a5.26,5.26,0,0,1,1.25-.89,4,4,0,0,1,.79-.09,2.69,2.69,0,0,0,.38-.2c.46-.14.82-.06,1.3-.18a8,8,0,0,1,2.32-.33,13.3,13.3,0,0,1,1.16.66c0,.33-.16.51-.09.84a3.29,3.29,0,0,0,1.57,2.38c.25.14.69,0,.89.23s0,.44,0,.66.38.4.64.6a1.19,1.19,0,0,0,.75-.42.73.73,0,0,1,.46.28h.56c.07,0,.09-.21.14-.28s.35-.17.46-.32c.37,0,.4.14.6.23a6.39,6.39,0,0,0,1.12.18,2.81,2.81,0,0,0,1.07-2.89v-1.31c0-.14-.24-.23-.27-.37-.13-.41.21-.88.08-1.4-.05-.22-.22-.35-.27-.51v-.37a.79.79,0,0,0-.19-.26H570.8l-.19.16c-.09.07-.23.06-.32.14s-.18.26-.28.33c-.4.24-.87.34-1.25.61-.14.08-.18.26-.29.36s-.4.18-.55.33-.23.54-.42.75-.24.15-.33.28-.13.6-.27.89a6.63,6.63,0,0,0-.75,4.06c.14.54,0,.94.18,1.35a3.62,3.62,0,0,0,.71.7,8.19,8.19,0,0,1,1.06,1.35,5.88,5.88,0,0,1,.33.84,8.3,8.3,0,0,0,.88,1.26c.07.1.06.23.14.33a6.36,6.36,0,0,0,.84.7c.1.08.12.28.23.37s.31.14.41.28.26.54.47.7.29.08.37.18.14.38.28.52.21.07.28.14.16.32.28.41l.42.15c.22.14.37.42.6.56s.31.06.51.14.2.18.28.23c.3.2.65.27.93.47.46.33.76.89,1.25,1.21a5.06,5.06,0,0,1-2.31,3.22c-.32.22-.52.71-.84.89s-.65.19-.93.37a7.24,7.24,0,0,1-2,1.07c-.49.12-.68-.22-1.16-.14,0,0-.16.09-.19.1-.37.06-.85-.12-1.29-.1l-.56.1s-.16-.13-.19-.14a3.79,3.79,0,0,0-1.35,0l0,0a7.58,7.58,0,0,0,.23-2.2c-.51-2.17-.4-3.51-2.51-4.15a2.73,2.73,0,0,0-1.16-.19V214h-.09a1.34,1.34,0,0,0-.23,1,1.31,1.31,0,0,1,.13.61,4.09,4.09,0,0,1-.23.56v.23h-.09c0,.11-.06.22-.1.33h-.09a.82.82,0,0,1,0,.32c0,.07-.16.17-.18.23a4.7,4.7,0,0,1-.29.85c-.26.45-.72.87-1,1.3-.11.17-.11.35-.23.51s-.43.39-.55.61-.16.38-.33.52a12.05,12.05,0,0,1-1.19.7v6.61a1.06,1.06,0,0,0,.17.47A2.36,2.36,0,0,0,558.82,229.44Z" transform="translate(-149.04 -195.46)"/><path class="cls-1" d="M689.92,198.89a8.75,8.75,0,0,1-.42.93c-.14.39-.1.69-.23,1.12s-.31.65-.42,1c-.18.6-.34,1.27-.51,1.87a.64.64,0,0,0,.09.51c0,.36-.27.34-.37.6s-.08.87-.23,1.31c-.05.12-.19.24-.23.37s0,.56-.05.84c-.32,1.14-.63,2.35-.93,3.59-.11.46-.1.91-.18,1.31v.7c-.1.27-.34.69-.42,1s.07.54,0,.89-.33.65-.42,1,.06.69,0,1a3.89,3.89,0,0,1-.18.41v.48a7.62,7.62,0,0,1-.42,1.58c0,.47-.14.34-.42.51s-.07.71-.18,1.07a3.89,3.89,0,0,1-.33.76c-.09.13-.33.29-.36.46s.6,1,.69,1.3c.12.4-.06.68,0,1a3.78,3.78,0,0,1,0,1.34,1.43,1.43,0,0,0,0,.52,6.86,6.86,0,0,0,.5,1.59c.11.09.22.19.33.27s.09.29.19.42a2.29,2.29,0,0,0,1.76.84,3.32,3.32,0,0,0,.6-.28,1.34,1.34,0,0,0,.65-.37c.36-.5.25-1.25.42-2a3.08,3.08,0,0,0,.14-.6,4,4,0,0,1-.14-1.41c.19-.75.29-1.51.47-2.28,0-.33,0-.65,0-1,0-.1-.15-.23-.09-.42s.15-.26.19-.38,0-.43.09-.65.22-.29.28-.46l.09-.57c.05-.11.19-.27.24-.41.09-.35-.08-.76,0-1.07,0-.1.15-.25.17-.33v-.61c.06-.21.06-.5.15-.79.25-.88.69-1.88.88-2.75,0-.17,0-.34-.05-.52.2-.91.18-1.9.46-2.75.08-.22.31-.37.38-.55s0-.47.05-.7.35-.72.46-1,.06-.67.19-1,.36-.69.46-1c.17-.48.28-1,.42-1.44,0-.19,0-.37,0-.56s.39-.46.5-.7.12-.62.28-.93c.09-.16.31-.34.37-.51a8,8,0,0,0,.1-.84,4.93,4.93,0,0,0,0-1.59c0-.2,0-.4,0-.61a1.29,1.29,0,0,0-.14-.6l-.09-1a4.28,4.28,0,0,0-.93-1.32h-3.6c-.13.74-.2,1.54-.35,2.17C689.81,198.09,690,198.48,689.92,198.89Z" transform="translate(-149.04 -195.46)"/><path class="cls-1" d="M677.29,203c-.07-.12-.25-.27-.33-.41s-.07-.48-.19-.74a5.12,5.12,0,0,0-1.43-1.5c-.27-.15-.5-.08-.84-.19a2.46,2.46,0,0,1-.65-.41.4.4,0,0,0-.32.09c-.21.14-.13.24-.24.51s-.23.26-.28.37.11.52.15.66c0,.41,0,.83,0,1.25,0,.1-.16.25-.19.33s0,.28.05.42-.3.66-.37.93-.07.6-.1.89-.35.78-.46,1.12,0,1-.19,1.35c0,.06-.15.18-.18.24a6.22,6.22,0,0,0-.37,1c0,.25,0,.5,0,.75,0,.1-.2.21-.23.33v.65c-.22.79-.66,1.56-.89,2.38,0,.31,0,.62,0,.93a13.87,13.87,0,0,1-.28,1.4c-.08.2-.3.36-.37.56s0,.28,0,.42a14.1,14.1,0,0,1-1,1.17,5.58,5.58,0,0,1-.75.23s-.63.71-.65.75c-.25.46.28.84.05,1.3l-.51.51c0,.16-.09.32-.14.47s-.4.2-.51.37,0,.49-.18.66-.44.16-.61.28-.19.21-.28.33a6,6,0,0,1-1.12.51c-.11,0-.26.23-.36.28l-.7,0a6.26,6.26,0,0,1-2.42.09h-.69c-.3-.07-.58-.25-.84-.33s-.56-.05-.79-.19-.38-.37-.65-.46a4.66,4.66,0,0,1-.09-1.22,1.67,1.67,0,0,0,0-.65,2.27,2.27,0,0,1-.13-1.12s.13-.15.13-.18v-.43a7.67,7.67,0,0,0,.47-.84c.08-.27-.14-.69,0-1,0-.12.22-.34.27-.47.16-.38.12-.76.28-1.16a2.75,2.75,0,0,1,.19-.28l.18-1.27c.12-.36.35-.87.47-1.26v-.41c.06-.19.26-.36.32-.57s0-.4,0-.6a2.5,2.5,0,0,1,.23-.23c0-.21.07-.41.09-.61s.47-.37.61-.74c0-.14,0-.28,0-.43.12-.4.32-.91.42-1.35s-.19-1.31,0-1.63.67-1.1.84-1.54c0-.2,0-.41,0-.61.37-1.64-1.21-2.25-2.22-2.7a5.72,5.72,0,0,1-.7-.24c-.87,0-1,1.22-1.11,1.92v.65a5.55,5.55,0,0,1-.75,1.4l-.19.18c-.18.45-.18.86-.37,1.31-.38.93-.78,1.78-1.11,2.8-.05.16-.23.25-.28.38s0,.56-.09.78-.31.35-.38.52v.28a8.18,8.18,0,0,1-.32.84c0,.13,0,.25,0,.37s-.31.39-.38.56,0,.31,0,.47a6,6,0,0,1-.24.55v.38c-.05.19-.22.4-.27.56l-.06.66c0,.08-.11.28-.13.37s0,.34,0,.51a4.36,4.36,0,0,0-.22,1.91c.18.83.23,1.68.41,2.52,0,.34,0,.69,0,1l.14.14v.56a11,11,0,0,0,.6,1.35c.06.14,0,.24.1.37l.78.75.37.41c.53.32,1.25.31,1.77.62a12.32,12.32,0,0,0,1.07.79,6.63,6.63,0,0,0,1.11.32l.7,0c.49.15.92.34,1.44.47a4.09,4.09,0,0,0,.93,0h1.48c.47-.1,1.06-.22,1.49-.33s1,0,1.49-.09a5.59,5.59,0,0,0,1.21-.42,2,2,0,0,1,.18-.23c.17-.11.46-.11.56-.28v-.19c.09-.17.32-.26.41-.47s0-.26.1-.37.36-.25.41-.47a3,3,0,0,0,0-.88c0-.06-.17-.17-.18-.24,0-.26,0-.53,0-.79-.05-.1-.2-.15-.24-.28-.13-.45.19-.65.24-.94s-.06-.52-.1-.79c.66,0,.75.49,1.21.66a4.91,4.91,0,0,0,2.51-.14c.26-.17.3-.42.46-.71s.42-.35.51-.55,0-.28,0-.42.19-.22.23-.33,0-.44,0-.65.11-.29.14-.37c0-.26,0-.51,0-.75s.18-.53.23-.75,0-.57.1-.83.47-.66.59-1a12,12,0,0,0,.29-1.4v-.52c.13-.46.39-1,.51-1.4s0-1.21.14-1.72c.07-.19.3-.37.37-.56v-1.3a9.55,9.55,0,0,0,.65-2.25C677.09,205,677.71,203.87,677.29,203Z" transform="translate(-149.04 -195.46)"/><path class="cls-1" d="M609.86,224.59c.13-.2.12-.33.37-.42a1.85,1.85,0,0,0-.56-1.5c-.14-.09-.27-.09-.37-.22s-.3-.47-.61-.56c-.15-.1-.33-.06-.56-.1-1-.18-1.51.67-2.22.88h-.24c-.11.05-.29.22-.41.24l-.42-.09c-.17,0-.2.26-.32.32l-.75.1c-.08,0-.26.15-.37.18s-.3-.07-.56,0-.4.19-.6.24c-.52.13-.92,0-1.44.14a7.64,7.64,0,0,1-2,.14H598c-.26-.08-.59-.24-.84-.33s-.36-.06-.55-.09-.48-.35-.74-.47-.39-.09-.61-.19-.27-.22-.42-.28-.25,0-.37-.09a5,5,0,0,1-.69-.88c-.09-.15-.09-.3-.19-.43s-.42-.4-.56-.6-.09-.32-.13-.47c-.16-.3-.47-.43-.56-.79a2.54,2.54,0,0,1,.18-1.12v-.65c0-.11.19-.21.24-.33.1-.35,0-.73.14-1.07l.23-.23a2.44,2.44,0,0,0,.18-.52c0-.11.19-.22.23-.32.07-.44.13-.88.19-1.31,0-.13.19-.22.23-.33v-.37l.32-.33c.14-.21.14-.41.38-.52l.09,0c.58,1.08,1.45,1.29,2.7,1.68.33.11.68-.12,1,0a2,2,0,0,1,.46.33,5.46,5.46,0,0,0,1.53.7l1.26,0a3.62,3.62,0,0,0,1.76,0c.13,0,.27-.2.38-.24l1,.1.51-.14c.29-.07.77.09,1,0s.37-.27.55-.32c.45-.14.83.12,1.21,0,.15-.05.32-.22.47-.28.31-.13.6-.12.93-.24.18-.06.4-.21.59-.28a5.55,5.55,0,0,0,.75-.14c.54-.2,1.12-.52,1.67-.69l.88-.15c.23-.08.47-.32.7-.41s.58,0,.88-.15.46-.26.7-.32l.74,0,.24-.23c.33-.22.8-.23,1.06-.51h0a6.74,6.74,0,0,0,.65-1.55c.11-.38,0-.65.14-1a2.32,2.32,0,0,0,.19-1.22c-.06-.17-.23-.24-.33-.36s0-.26,0-.38-.36-.16-.52-.28-.07-.19-.14-.28-.33-.18-.46-.28l-.33-.37c-.21-.14-.55-.1-.74-.24-.39-.16-.37-.69-.61-1s-.65-.44-1-.7-.15-.37-.27-.61a2.24,2.24,0,0,0-.75-.61,2.4,2.4,0,0,0-.28-1.07c-.34-.08-.71-.24-1.07-.32s-1.18.22-1.67,0l-.42-.43-.41-.08-.1-.15a15.88,15.88,0,0,0-2.18-.42c-.3-.09-.47.14-.65.19l-1.21,0a2.58,2.58,0,0,1-.64.09l-.42-.33c-.13-.18-.12-.41-.24-.6a1.54,1.54,0,0,0-1.34-.61c-.3.19-.74.07-1.07.23a14.12,14.12,0,0,0-1.21.8c-.16.09-.32.08-.46.18s-.36.43-.56.57-.36.08-.51.18l-.42.51c-.32.22-.66.3-1,.52s-.44.55-.7.75-.51.28-.79.46a5.55,5.55,0,0,0-1.21,1.21c-.06.08-.15.07-.23.14a7,7,0,0,0-.75.79,7.74,7.74,0,0,0-.84,1.49c0,.22-.08.45-.13.66s-.29.13-.37.28c-.26.51-.37,1.25-.65,1.73-.19.31-.47.61-.65.93s-.19.62-.29.93c0,.14-.21.26-.27.37-.19.4-.19.73-.37,1.17-.06.16-.23.41-.28.56-.16.49-.06,1-.24,1.45-.07.21-.29.46-.36.7-.13.42,0,.77-.14,1.21-.05.17-.2.41-.23.56l.09.6a4.58,4.58,0,0,0,0,1.77,2.77,2.77,0,0,0,.42.71c.09.15,0,.3.13.46a3.22,3.22,0,0,0,.38.51c.16.26.12.63.28.85s.15.07.23.13a9.55,9.55,0,0,1,.93,1c.15.23.17.52.32.75s.55.4.75.66a6.22,6.22,0,0,0,.32.56c.12.12.33.16.46.27l.28.33c.19.11.34.06.56.14s.33.26.56.33l.56,0c.11,0,.29.19.41.24s.38,0,.56.14.26.26.41.33.28,0,.38.09a1.77,1.77,0,0,0,.51.32c.31.1.69.13.93.19h.93a10.51,10.51,0,0,0,4-.09h.65a20.19,20.19,0,0,0,4.41-1.45A5,5,0,0,0,609.86,224.59Zm-13.34-16.28v-.65l.37-.38c.15-.29-.09-.46.05-.7a10.83,10.83,0,0,1,.84-.93c.14-.1.36-.06.47-.18.3-.36.42-.89.83-1.13.19,0,.37-.06.56-.09a4.68,4.68,0,0,0,.79-.37c.26-.2.36-.59.6-.79s.39-.22.56-.38.44-.59.7-.83.51-.22.74-.38h1.12c.75.19,1.42.64,2.13.89l.51,0c.15.06.31.25.46.33a11.17,11.17,0,0,1,1.17.51,8.88,8.88,0,0,1,1.11,1.17c.18.24.52.25.74.46a1.79,1.79,0,0,1,.28,1.55c0,.11.05.1.1.18a1.19,1.19,0,0,0,.55,0c.29,0,.24.13.37.28a2.51,2.51,0,0,1-.28,1.27,1.37,1.37,0,0,1-.88.46l-.33,0a19.38,19.38,0,0,0-2,.74h-.52c-.27.07-.42.34-.69.42l-.84-.05c-.75.24-1.74.55-2.55.75-.61.15-1.2-.15-1.81,0a15.85,15.85,0,0,1-2.51.09c-.45,0-.82.27-1.3.14s-1-.31-1.39-.42-.66,0-.89-.13h-.09C595.51,209.29,596.32,209,596.52,208.31Z" transform="translate(-149.04 -195.46)"/><path class="cls-1" d="M622,222.91c.18.2.11.5.37.7s.32.15.42.28c.2.28.35.56.55.84a6.8,6.8,0,0,0,.7.61l.42.46a7.66,7.66,0,0,0,1.53.7c.06,0,.16.17.23.19a2.24,2.24,0,0,0,.93,0,6.62,6.62,0,0,1,1.17.18h.78c.58.16,1.5.16,2.14.28l.61-.09a5.08,5.08,0,0,0,1.62.05l1.11-.33.89-.05c.31-.08.61-.24.92-.32l.79-.09a9.83,9.83,0,0,0,1.31-.94s.06-.15.13-.19l.37,0c.25-.09.56-.2.84-.33s.5-.45.79-.56h.28l.32-.41c.13,0,.25-.09.37-.15a2.89,2.89,0,0,0,.65-.74,2.72,2.72,0,0,1,.65-.51c.21-.16.26-.4.42-.61s.5-.21.74-.33v0c.22-.11.21-.29.38-.41s.34-.12.46-.28c.41-.54.54-1.27.93-1.82.16-.23.51-.36.66-.61s.08-.4.18-.6a5,5,0,0,0,.55-1.08,9.1,9.1,0,0,0-.09-1.45,2.85,2.85,0,0,1,.19-.56,1.71,1.71,0,0,0-.7-1.63c0-.38.31-.52.23-.93a3.68,3.68,0,0,0-.56-1.49l-.32-.33v-.61c-.07-.2-.27-.35-.32-.61a3.66,3.66,0,0,0,.92-.92c.14-.23.15-.52.33-.71a3,3,0,0,0-.93-1.49c-.42-.18-1-.05-1.48-.18s-1.83-1-2.61-.85a3,3,0,0,0-.5.29c-.35.15-.42.21-.76.33-.14,0-.26.25-.41.29l-.77.1c-.1,0-.42,0-.53.07a7.71,7.71,0,0,1-1.77-.47,2.42,2.42,0,0,1,0-.24l1.91,0a1.79,1.79,0,0,0,.83,0c.3-.11.49-.45.79-.55.06-.29-.09-.61,0-.94s.53-.51.42-1c-.22-.93-1.08-1.13-2-1.35h-.6a2,2,0,0,0-.6-.24c-.45.3-1.52.14-2.09.33s-1.33.44-1.91.66l-.79.18c-.5.21-1.09.61-1.62.79a7.1,7.1,0,0,0-1.44.47c-.95.59-2,1.14-2.88,1.77-.2.13-.2.47-.37.61s-.39.11-.56.23v.09a8.46,8.46,0,0,0-1,.79c0,.13-.09.25-.14.38s-.53.14-.64.32c-.36.54-.59,1.09-.93,1.64s-.7.83-1,1.26a12.25,12.25,0,0,0-.84,1.91c-.08.2-.3.46-.36.65s0,.38,0,.56-.34.46-.42.65,0,.54,0,.8a1.83,1.83,0,0,0-.14.28v.7a8.46,8.46,0,0,0,.69,6.3C621.62,222.7,621.85,222.77,622,222.91Zm2.09-4.52c.07-.26.25-.59.32-.89.14-.54,0-1.15.19-1.63a7.46,7.46,0,0,0,.32-1c0-.22.07-.44.09-.66l.14-.09c.13-.2.19-.42.33-.61s.28-.24.42-.38a6.89,6.89,0,0,0,.37-.87c.12-.23.37-.29.51-.47.29-.39.41-.86.7-1.26a3.2,3.2,0,0,1,.79-.61c.23-.17.69-.88.88-1l.37-.05c.43-.17.82-.52,1.25-.69l.37-.05.24-.23a5,5,0,0,1,1-.56c.22-.09.44,0,.69-.1.08,0,.18-.15.24-.19.52-.27,1.06-.49,1.53-.79.25-.15.58-.18.79-.37a.32.32,0,0,1,.14,0,12.08,12.08,0,0,1,1.16,2,3.75,3.75,0,0,0,.93.79c.24.18.45.47.69.66s.3.12.42.32a1.34,1.34,0,0,0,.79-.38H640c-.1.58.35.89.23,1.36,0,.17-.18.36-.23.56-.14.57.08,1.11-.09,1.63-.06.19-.23.37-.29.61s.07.65.1,1c-.11.53-.17,1-.28,1.5v.65c-.06.26-.08.64-.18.94-.05.14-.21.26-.28.37-.12.29-.22.59-.33.88-.06.08-.22.11-.28.19s-.15.33-.27.47l-.23.14c-.17.19-.23.41-.43.56s-.2.07-.28.14,0,.15-.09.18-.44.1-.6.23-.06.19-.14.24c-.29.17-.64.17-.93.33a21.53,21.53,0,0,1-2,1.07l-.83.14c-.19.08-.49.25-.65.33s-.54.06-.8.18a3.56,3.56,0,0,1-.41.29l-1.49,0a7.41,7.41,0,0,1-3.62-.66,9.18,9.18,0,0,1-1.26-1.72c-.11-.4.13-.67,0-1.07A2.68,2.68,0,0,1,624.07,218.39Z" transform="translate(-149.04 -195.46)"/><path class="cls-1" d="M649.88,296.8c.16-.64.45-1.21.62-1.91.1-.48-.3-.83-.15-1.45.11-.43.41-.56.56-.89L651,292c.08-.19.25-.42.33-.61a6.3,6.3,0,0,0,.18-.84c0-.17,0-.34,0-.51s.15-.37.18-.51-.14-.41-.18-.56a6.25,6.25,0,0,1,.09-1.73c0-.39-.09-.77-.14-1.17a15.47,15.47,0,0,1,.51-2.75c.18-.47-.26-.69-.14-1.17s.47-.9.6-1.3.13-.9.19-1.35c0-.14.23-.29.28-.42s0-.35.14-.51c.38-.54,2.11-1,3-1.12a.65.65,0,0,1,.37.09,3.87,3.87,0,0,0,1.4,0c.17-.05.31-.23.46-.28l.46-.05c.47-.2.72-.74,1.12-1a3.33,3.33,0,0,0-2.23-2.8l-.46-.05c-.56-.15-1.79-.49-2-1a5.82,5.82,0,0,1,.42-1.58,4,4,0,0,0,.18-2.15c0-.15-.19-.35-.23-.51-.13-.47-.12-.92-.42-1.21l-.23-.05c-.46-.27-.82-.78-1.4-.93s-1.23.38-1.67,0a1,1,0,0,0-1,.74c-.23.38.25,1.3.06,1.87a6.34,6.34,0,0,0-.29.74v.75c-.07.25-.28.57-.36.84s-.07.44-.1.65-.25.53-.32.74,0,.26,0,.38-.38.42-.51.7a5.77,5.77,0,0,1-2.46.24c-.26-.08-.52-.3-.75-.38l-.46-.05c-.31-.1-.61-.39-.93-.51l-1-.09a2.57,2.57,0,0,0-1.25-.19c-.18.07-.31.27-.46.38a8.53,8.53,0,0,0,.27,1c0,.32,0,.63-.05.94s.29.42.38.6a5.25,5.25,0,0,1,.14.71,7.35,7.35,0,0,0,.51,1.11c.09.15.27.18.42.28s.35.42.56.56a7.91,7.91,0,0,0,1.53.71c.76.24,1.81.06,2.51.37a6.66,6.66,0,0,1-.28,2.66c0,.26,0,.52,0,.79-.11.45-.26,1-.38,1.49v.89a4.09,4.09,0,0,0-.14,1.21,1.24,1.24,0,0,1,.1.61c0,.06-.12.21-.14.27,0,.22,0,.44,0,.66s-.29.36-.37.56-.07.67-.19,1c0,.1-.15.27-.18.38,0,.31-.06.62-.1.93s-.18.31-.23.47l-.09.79-.28.32h-.65a5.27,5.27,0,0,0,.28,1.27V294c0,.09.12.29.14.38.11.47-.27,1.08-.09,1.73a11.38,11.38,0,0,0,.68,2.24h3.47c0-.1.05-.2.07-.28C649.86,297.67,649.87,297.24,649.88,296.8Z" transform="translate(-149.04 -195.46)"/><path class="cls-1" d="M580.18,297.36c.09-.13.08-.3.19-.42s.29-.2.37-.42,0-.7,0-.89,0-.47-.14-.66-.63-.4-.93-.6-.33-.38-.51-.51l-.51-.19c-.33-.25-.28-.67-.84-.75a1.7,1.7,0,0,0-1.38-1.39c-.43.34-1,.44-1.45.74-.24.16-.38.48-.6.65s-.22.11-.33.19-.21.49-.37.75a4.35,4.35,0,0,1-.79.56l-.88.05a8.53,8.53,0,0,1-3.86,0,8.13,8.13,0,0,1-1-.14,2.78,2.78,0,0,1-.79-.62.75.75,0,0,1-.08-.18h-.15a2.79,2.79,0,0,1-.74-.46,3.07,3.07,0,0,1-.28-.47c-.12-.17-.35-.25-.51-.37s-.16-.3-.28-.42-.2-.08-.28-.14-.35-.44-.56-.61l-.13-.05c-.11-.29-.22-.59-.32-.88s-.32-.27-.38-.42c-.26-.63.11-1.58-.05-2.29a4,4,0,0,1-.18-.84,2.52,2.52,0,0,0,0-.88,2.69,2.69,0,0,1-.09-1.73c0-.12,0-.25.05-.37a10,10,0,0,0,1.25-2.34c.12-.54-.27-.72-.37-1a8.51,8.51,0,0,1-.1-1c-.09-.47.24-.49.42-.69s.16-.57.28-.84a7.4,7.4,0,0,1,.51-.7c.07-.23.13-.46.19-.7s.32-.29.42-.46.08-.51.19-.75a6.89,6.89,0,0,1,1.48-2c.15-.15.32-.45.51-.55.48-.26,1.14-.12,1.67-.33.21-.09.41-.41.61-.52a7.1,7.1,0,0,0,.69-.28,7,7,0,0,1,1.12-.74h2.32c.1,0,.32.11.42.14s.36,0,.51.09c.57.27,1.2,2,1.67,2.61s2.08.53,3,.47l.56.19a3.16,3.16,0,0,0,2.69-.85c.1-.13.07-.33.14-.51a2.65,2.65,0,0,0,.37-1.3c-.15-.89-1.26-1.79-1.9-2.24-.2-.14-.29-.4-.51-.51a4.54,4.54,0,0,0-1.16-.33,4.12,4.12,0,0,1-.47-.23,6,6,0,0,0-1.63,0h-.78l-.24-.28a2.84,2.84,0,0,0-.65-.38,9.16,9.16,0,0,0-2.64-.27h-1.07a16.77,16.77,0,0,0-4.41,1.68,14.53,14.53,0,0,0-2.09,1.91c-.1.09-.27.09-.37.18a2.83,2.83,0,0,0-.47.61l-.6.56c-.19.25-.22.63-.42.88s-.54.48-.74.75-.13.36-.23.51-.32.17-.47.28l-.74.94c-.35.66-.44,1.43-.79,2.1l-.33.32c-.12.21-.12.43-.23.66s-.22.22-.28.32a5.58,5.58,0,0,0-.27,1.07,3.64,3.64,0,0,1-.38.71c-.18.32-.1.74-.23,1.11s-.25.45-.33.66c-.16.42-.11.92-.27,1.35-.1.25-.2.54-.31.85v7.24a1.66,1.66,0,0,0,.12.31c.11.19.35.36.46.56s.06.38.2.51.44.26.59.46a3.53,3.53,0,0,0,.61.79,4.8,4.8,0,0,1,.6.47c.08.09.09.22.19.29s.28.1.37.23a5.7,5.7,0,0,0,1,1.16c.19.15.43.19.61.34s.28.56.55.74l.47.14c.3.15.59.32.9.47H578.6A6.81,6.81,0,0,0,580.18,297.36Z" transform="translate(-149.04 -195.46)"/><path class="cls-1" d="M619.38,297.31v-.42a2.14,2.14,0,0,0,.13-1.07c-.07-.29-.36-.42-.51-.65a8,8,0,0,1-.55-1.5c-.07-.19-.28-.41-.32-.6a10.71,10.71,0,0,1,.41-1.73,7.77,7.77,0,0,0,0-2.1c.09-.81.19-1.61.28-2.43.08-.28.33-.35.47-.56s.2-.74.41-1,.37-.25.47-.47a8,8,0,0,0,.32-1.21v-.75c.1-.36.35-.78.47-1.16l.09-.66c.16-.31.64-.42.83-.65a20.61,20.61,0,0,0,1-1.87c.23-.34.77-.35,1.11-.6s.47-.86.84-1.07.48-.13.69-.28.25-.35.38-.51a3.76,3.76,0,0,1,1.44-.94,3.22,3.22,0,0,1,1.25.1c.26,0,.7-.13,1,0s.56.52.88.7c.73.39,1.29.61,1.62,1.39,0,.25.06.5.1.75a2.45,2.45,0,0,1,0,1.63c-.11.52.1,1.13,0,1.59s-.28,1.4-.42,2v.47c-.12.47-.42.89-.56,1.4,0,.21,0,.44.05.65a3.54,3.54,0,0,1-.19.33c0,.3-.09.59-.13.88-.14.46-.25,1-.43,1.5a5.45,5.45,0,0,0-.37,1.12,7.14,7.14,0,0,0-.93.28c-.3.2-.2.69-.6.83,0,.84.13.44.51.75.17.14.25.53.51.7a3.9,3.9,0,0,0,.33,1.58,4.54,4.54,0,0,0,.93,2.67l.69.24c.7.4.74.6,1.63.18h.19a2.4,2.4,0,0,0,.37-.28c.55-.7,0-1.81.37-2.48a9.28,9.28,0,0,0,1-1.58c0-.16,0-.31,0-.47.1-.35.27-.68.37-1s0-.38,0-.56c.13-.43.46-.81.61-1.22l.09-.88c0-.05.12-.18.14-.23,0-.35,0-.69,0-1s.21-.64.28-.94,0-.9,0-1.35c.21-.73.77-1.18,1-1.91,0-.55-.07-1.09-.1-1.63a6.86,6.86,0,0,0-.14-3c0-.27,0-.54-.05-.8a7,7,0,0,0-1.43-2c-.35-.17-.74-.12-1.07-.33s-.52-.62-.84-.8-.64-.16-.93-.37-.47-.6-.93-.75a7.89,7.89,0,0,0-3.71,0l-.84.05c-.43.12-1,.34-1.39.47l-.56.09c-.38.18-.79.46-1.16.65a14.49,14.49,0,0,0-1.48.71c-.24.15-.47.41-.7.56s-.37.12-.56.18-.36-.15-.55-.28a12.65,12.65,0,0,0-.19-1.49c-.1-.25-.34-.44-.42-.75v-.51c0-.1-.19-.24-.23-.32s-.06-.38-.09-.57a2.07,2.07,0,0,0-2.1-1.26c-.17.14-.29.18-.37.42s0,1.23-.09,1.68c-.06.25-.17.59-.23.8-.15.49,0,.92-.23,1.35s-.38.72-.52,1.07a16.09,16.09,0,0,0-.41,1.59c0,.17,0,.34-.05.51s-.15.17-.18.24c-.12.23,0,.49-.1.79s-.24.61-.32.89v.55c-.08.31-.21.67-.28.93s0,.63.05.94c-.14.74-.21,1.51-.38,2.23-.1.42,0,.74-.09,1.13s-.47.54-.69.89a2.75,2.75,0,0,0-.29.79v1a7.63,7.63,0,0,0,.14,2.48c.08.36-.08.52,0,.89a1.71,1.71,0,0,1,.15.6c-.09.4-.33.75-.42,1.12a1.73,1.73,0,0,0,.13.93v1c0,.06.13.22.14.28,0,.4.06.81.1,1.22a3.79,3.79,0,0,0,1.38,1.35h2.92A2.5,2.5,0,0,0,619.38,297.31Z" transform="translate(-149.04 -195.46)"/><path class="cls-1" d="M599.17,296.52a4.5,4.5,0,0,0-1.34-.56c-.25-.1-.37-.33-.56-.47s-.3-.08-.42-.18c-.51-.45-.12-1-1.3-1-.41.44-.88.41-1.44.69l-.18.24a1.94,1.94,0,0,1-1.31.14,6.27,6.27,0,0,1-1.2-.8l-.65-.64-1.07-.38c-.2-.15-.33-.61-.56-.79a3.12,3.12,0,0,1,.05-1.26c.08-.2.34-.32.23-.75-.16-.63-.4-1.31-.56-1.87s.29-1.24.19-1.77a4.06,4.06,0,0,1,0-2.05c.08-.4-.08-.86,0-1.21.05-.15.25-.86.32-1s.29-.17.42-.28,0-.16.09-.23c.36-.51.91-.76,1.08-1.5.39.05.4.55.6.8l.14,0c.14.16.12.32.23.51s.53.43.79.61.28.35.47.42l.69.05c.34.09.71.31,1,.42a13.51,13.51,0,0,0,1.76.19,2.66,2.66,0,0,1,.75-.1,11.56,11.56,0,0,0,3.76-.33,2.07,2.07,0,0,1,.93.14,4.49,4.49,0,0,0,.69,0c.38,0,.8.16,1.16.18l.61-.18a3.74,3.74,0,0,1,1.25-.1,1,1,0,0,0,.38.05c.3-.07.53-.31.83-.41s.85-.09,1.16-.29a9.59,9.59,0,0,1,.75-.61c.29-.1.57,0,.83-.09a1.59,1.59,0,0,0,1.07-2c-.21-.45-.68-.42-1.11-.65a3.18,3.18,0,0,0-.79-.47c-.47-.13-.94-.1-1.21-.42-.05-.07,0-.13,0-.24.12-.34.5-.27.79-.46s.26-.37.41-.51c0-.21,0-.4,0-.61a6,6,0,0,0-1-.65c-.21-.55.27-1.29.1-1.59a1.8,1.8,0,0,0-.7-.61,12.14,12.14,0,0,0-.47-2.75c-.18-.3-1-.5-1.39-.6h-.42c-.72-.29-1.43-.76-2.13-1s-1.33,0-2-.14a4,4,0,0,0-1-.09c-.84.59-1.67-.18-2.7,0a5.25,5.25,0,0,0-2.27.75c-.3.21-.53.81-.84,1.07s-.89.49-1.24.84a4.12,4.12,0,0,0-.52.65c-.22.3-.61.47-.84.75-.38.5-.74,1-1.11,1.5-.06.07-.15.07-.23.14s-.66.68-.7.74c-.23.33-.35.71-.6,1a7.94,7.94,0,0,0-.74.89c-.12.17-.12.4-.23.56s-.2.08-.24.14a4.31,4.31,0,0,0-.32.87c-.1.22-.34.41-.42.62a10.44,10.44,0,0,1-.42,1.3,3.39,3.39,0,0,0-.33.42,10.27,10.27,0,0,0-.22,1.45c-.16.62-.38,1.26-.52,1.82v.46c-.13.48-.1,1.17-.23,1.73-.06.22-.18.46-.24.65q0,1-.09,2c0,.15-.19.28-.23.42s0,.31,0,.46a8.73,8.73,0,0,0,0,1.78,10.2,10.2,0,0,0,.51.93c.08.18,0,.36.1.51s.42.38.55.61.19.5.28.75a5,5,0,0,0,1,1.07c.08.06.17.06.23.14a3.93,3.93,0,0,0,.52.8c.18.15.48.12.69.27s.12.21.18.28a3.34,3.34,0,0,0,.79.56l.33,0a.19.19,0,0,1,.1.05h9.3a1.68,1.68,0,0,0,.49-1.12C599.54,297.07,599.35,296.68,599.17,296.52ZM591,278.89a10.29,10.29,0,0,1,1.48-1.78c.14-.11.36-.18.47-.32s.12-.32.23-.47.43-.36.55-.6.08-.37.19-.56l.41-.33c.1-.13.11-.26.19-.38s.41-.36.6-.56,0-.17.1-.23a18,18,0,0,1,1.63-1.11c.13-.16.27-.32.41-.47a3.72,3.72,0,0,1,1.16-.47c.17,0,.35,0,.47-.05l1.76.23.84,0c.09.1.19.18.28.28.31.22.64.34.93.56l.28.42c.67.48,1.25.56,1.48,1.55.12.51-.23,1-.32,1.35a12.59,12.59,0,0,1-.38,1.81c-.06.14-.24.17-.32.28a3.59,3.59,0,0,0-.23.7c-.1.27-.37.49-.42.79a12.47,12.47,0,0,1-3.39.38H598a5.34,5.34,0,0,0-2.64-.19c-.48.11-1.06,0-1.44.1a1.52,1.52,0,0,1-1-.24,1.77,1.77,0,0,0-1.72.19c-.19,0-.15-.1-.27-.19Z" transform="translate(-149.04 -195.46)"/><path class="cls-1" d="M675.06,296.56a2.63,2.63,0,0,0-.14-.65c-.08-.33.11-.78,0-1-.21-.42-1.6-.33-2.19-.18-1.13.27-2.2.65-3.29.93a3.27,3.27,0,0,1-1.53-.28h-.42a6.62,6.62,0,0,1-1.44-.7c-.17-.13-.19-.4-.32-.56l-.61-.43c-.51-.35-1.12-.47-1.35-1.11s.23-1.38.23-2.05a8.32,8.32,0,0,1,.06-2.29c.06-.22.2-.55.27-.84s.07-.62.1-.93.31-.58.41-.89c.16-.47.19-.84.37-1.3s.47-.83.65-1.31c.52-.09.64.25,1,.37s.58.07.88.19a11.72,11.72,0,0,0,3.11,1c.23,0,.54-.23.74-.28.56-.15.9.21,1.45.09s1.26,0,1.85-.09,1-.27,1.35-.37,1,.26,1.39.37a8.45,8.45,0,0,0,2.46,0h.74a6.85,6.85,0,0,0,2.28-.94c.2-.16.31-.59.55-.79a2.18,2.18,0,0,0-.65-1.68c-.44-.25-1.1-.13-1.57-.38s-.67-.73-1-1.11c0-.4.4-.53.27-1.08a4.41,4.41,0,0,1-.19-1.44c0-.11.2-.26.24-.37a2.26,2.26,0,0,0-.14-1.4c-.13-.32-.38-.19-.69-.33-.46-.19-.75-.73-1.22-.89.05-.49.39-1,.14-1.49s-1.14-.73-1.67-1.07c-.25-.17-.2-.45-.37-.7a3.61,3.61,0,0,0-2.51-.84c-.15.12-.39.06-.6.14s-.37.27-.56.33h-1.11c-.17,0-.38.15-.51.18-.29.07-.45-.1-.61-.14a4.3,4.3,0,0,0-1.9.47,5,5,0,0,0-1,1.12c-.09.13-.1.28-.24.37a5.06,5.06,0,0,0-.69.7c-.19.19-.5.29-.65.51s-.16.38-.28.56c-.24.35-.65.63-.88,1s-.3.86-.57,1.25-.64.87-.87,1.26-.19.56-.28.85a10.17,10.17,0,0,0-.7,1.2c-.1.24,0,.49-.14.75s-.21.38-.28.56c-.13.39-.09.69-.23,1.08,0,.11-.19.24-.23.32-.16.29-.09.63-.23.93a11.76,11.76,0,0,0-.65,1.49c0,.29,0,.57,0,.85,0,.12-.15.32-.19.46s-.06.5-.09.75-.31.69-.42,1.07.09.65,0,1-.36.72-.47,1.07a5.77,5.77,0,0,0,0,2.19c.1.51-.08,1,.09,1.45.05.12.22.22.28.32.46.83.88,1.57,1.39,2.34a4.42,4.42,0,0,0,1.12,1c.14.11.18.35.32.47s.66.46,1,.7h11.16C675.39,297.81,675,297.16,675.06,296.56Zm-7.67-16.79c.11-.19.06-.38.15-.6s.38-.84.51-1.22,0-.69.18-.88.18-.08.24-.14a4.22,4.22,0,0,1,.78-.8,3.53,3.53,0,0,0,1.16-.88c.21-.31.24-.66.42-1a4.27,4.27,0,0,1,1.35-1.45c.56-.33,1.74.08,2.28-.27a2.11,2.11,0,0,1,1.81,1.11c.09.19,0,.36.14.56a7.51,7.51,0,0,1,.5,1c0,.26,0,.53.05.8a4.83,4.83,0,0,1-.05,2.24c-.07.09-.25.17-.32.27a5.63,5.63,0,0,1-1.25,1.68c-.28.17-.7,0-1.07.09-1.87.6-5.58.86-7.15,0C667.17,280,667.3,280,667.39,279.77Z" transform="translate(-149.04 -195.46)"/><path class="cls-1" d="M691.45,296.19c.1-.25.19-.5.28-.75a10.26,10.26,0,0,0,.74-2.75,2,2,0,0,0-.08-.79,4.19,4.19,0,0,1,.13-1.63.55.55,0,0,0-.09-.38,5.42,5.42,0,0,1,.14-1.44c.1-.46-.21-.73-.14-1.08.16-.79.44-1.63.65-2.33l.09-1.4c0-.09.2-.17.23-.28a1.52,1.52,0,0,0,0-.65,1.42,1.42,0,0,1,.08-.52,1.36,1.36,0,0,0-.08-.55,4.27,4.27,0,0,1,.19-1.4c.06-.14.26-.29.32-.47v-.42a2.76,2.76,0,0,1,.37-.84c.15-.2.39-.22.6-.37a3,3,0,0,0,.33-.46c.09-.29.19-.57.27-.85s.57-.3,1-.42.7-.24,1-.32l1.49,0c.49-.14,1.05-.75,1.86-.51.55.16.85.72,1.29,1s1.12.25,1.54.51.91.79,1.39,1.08a3.67,3.67,0,0,1,.84.42c.17.17.29.43.51.56l.46.08c.24.11.53.34.79.43a4.07,4.07,0,0,0,2.51-.51,1.81,1.81,0,0,0,.28-1.22c0-.1-.19-.21-.23-.32-.12-.39,0-.85-.14-1.17s-.41-.43-.56-.65-.18-.45-.32-.65-.39-.2-.56-.33a3.93,3.93,0,0,0-.84-.61c-.42-.18-.81-.16-1.25-.33s-.67-.46-1-.6-.46,0-.7-.05-.51-.33-.79-.42a9.54,9.54,0,0,0-2.55-.14c-.25.17-.71.05-1,.14s-.42.22-.61.28c-.38.12-.6.12-1,.23s-.84.44-1.25.61l-1,.24c-.3.14-.59.41-.88.55s-.48.1-.69.24a7.92,7.92,0,0,0-1.08.93h0c0-.42-.09-.84-.14-1.25-.05-.15-.23-.25-.29-.38s0-.25,0-.38c-.22-.51-.92-.64-1.48-.84-.33-.1-1-.25-1.31,0s-.09.91-.23,1.5-.25,1.54-.42,2.24c-.11.49,0,.9-.09,1.35a10.62,10.62,0,0,1-.46,1.11v.33c-.08.26-.23.69-.33.93s-.05.47-.09.71-.3.47-.37.7v.47c-.14.6-.2,1.35-.33,1.91v.51c0,.19-.18.43-.23.61s0,.54-.09.79-.22.34-.28.47l-.09.51c-.06.11-.23.25-.28.38s-.09.43-.14.65a4,4,0,0,0-.37.6c-.14.42,0,.81-.23,1.12a7.43,7.43,0,0,1-.93.84c0,.57.3.51.42.89v1.07c0,.09.15.23.18.33a3.65,3.65,0,0,1-.18,1.68,4,4,0,0,0,.09,1.53v.9c.13.39.59.64.79,1,0,.08.1.16.14.24h3.32c.14-.37.14-.85.3-1.21S691.25,296.54,691.45,296.19Z" transform="translate(-149.04 -195.46)"/><path class="cls-1" d="M628.2,239.09c-.06,0-.14,0-.19-.09s0-.26-.09-.36c-.21-.34-.63-.24-.93-.47a3.57,3.57,0,0,0-.46-.42,6.47,6.47,0,0,0-2.46-.43c-.09,0-.29.19-.38.19a2.06,2.06,0,0,1-.46-.14,1.32,1.32,0,0,0-.51,0,2.3,2.3,0,0,1-1.39-.14c.07-.44.43-.81.55-1.22v-.6c.07-.27.22-.55.28-.79s0-.57.05-.85a3.13,3.13,0,0,0,0-1.58c0-.29-.1-.09-.19-.23v-.47a4.39,4.39,0,0,0-.19-.93c-.1-.2-.42-.29-.55-.47s-.09-.3-.19-.47a3.51,3.51,0,0,0-2.51-.88,12.88,12.88,0,0,1-2,.42c-.08.41-.22.85-.33,1.3s.16.61.1.85-.38.57-.46.83c-.15.43,0,.87-.15,1.31,0,.2-.26.33-.32.51a5,5,0,0,0,0,1.45c0,.19-.33.49-.42.65s0,.46-.09.75-.26.56-.33.83c-.58.1-.7-.35-1.11-.5a6.56,6.56,0,0,0-4.09-.1c-.16,0-.34,0-.46.1s-.18.07-.23.23,0,0,0,.09l.47.52a3.35,3.35,0,0,1,.88.65c.15.22.22.44.37.65l.42.37c.07.12,0,.28,0,.43,0,0,.46.5.47.5s.64.42.65.43c.35.14.69.08,1,.27s.3.35.46.52a3.65,3.65,0,0,1-.28,1.16c0,.3,0,.59,0,.89s-.37.36-.37.61.24.37.19.6-.22.56-.28.8c0,.4,0,.81,0,1.21-.4,1.41-.4,3-.78,4.38l.09,1c-.06.23-.21.57-.28.84v.93a1.91,1.91,0,0,0-.19.47l0,0a1.11,1.11,0,0,1-.56,0h-.09a4.19,4.19,0,0,0,.18,1c.05.26-.16.3-.09.56s.27.36.32.51a8.89,8.89,0,0,1-.08,2.14,2.29,2.29,0,0,0,.08.89c.05.36.1.72.14,1.08s.38.77.52,1.11.14.58.37.75,1.44,1.07,2,.94a3,3,0,0,0,.47-.24,1.43,1.43,0,0,0,.74-.42,6.35,6.35,0,0,0,.5-2.7,5.74,5.74,0,0,1-.13-2c.05-.19.23-.41.28-.61s-.24-.49-.15-.84.3-.62.38-.83,0-.47.05-.71.11-.32.14-.41v-.7a3.79,3.79,0,0,0,0-1.36,1.08,1.08,0,0,1,0-.46c0-.11.19-.26.23-.38v-.56c.1-.31,0-.73.14-1.12,0-.1.16-.27.18-.37.09-.26-.08-.55-.09-.7a3.17,3.17,0,0,1,.23-.93c.07-.25-.11-.38,0-.65l.14-.14c0-.19,0-.38,0-.56s.19-.33.23-.47a4.56,4.56,0,0,0,0-.51c.07-.22.27-.4.33-.61v-.7c0-.19.22-.41.28-.61a14,14,0,0,1,.42-1.58,3.7,3.7,0,0,1,.28-.28c.29,0,.51-.2.74-.14s.38.19.51.23h.93a1.43,1.43,0,0,0,1.07.09c.21-.08.5-.46.79-.42,0,0,.19.13.23.14l1.39,0a4.36,4.36,0,0,0,1.82.23s.14-.13.18-.14l.46-.05c.1,0,.18-.19.28-.23l.75-.05a1.75,1.75,0,0,0,.79-1A1.61,1.61,0,0,0,628.2,239.09Z" transform="translate(-149.04 -195.46)"/><path class="cls-1" d="M650.63,239.63c-.13-.13-.18-.4-.32-.52l-.75-.28c-.2-.15-.27-.53-.46-.7a14.7,14.7,0,0,0-2-1.35,16.59,16.59,0,0,0-2.28-.52c-.23-.08-.22-.26-.37-.42a5.92,5.92,0,0,0-.79-.51l-1.67-.28c-.39-.14-.81-.48-1.21-.6a5.42,5.42,0,0,0-2.78.42c-.16.12-.15.41-.28.55s-.3.16-.38.29-.06.34-.09.51-.32.33-.37.7h-.14a6.75,6.75,0,0,1-.79,1,11.13,11.13,0,0,0-1.39,2.57v.7c-.06.19-.31.42-.37.61v.37c-.09.28-.25.67-.33,1s0,.84,0,1.26a2.68,2.68,0,0,0,0,1.07c0,.09.16.2.19.28.09.27,0,.53.09.75s.36.26.51.37a2.47,2.47,0,0,1,.46.65c.11.22-.07.38,0,.61a2.33,2.33,0,0,0,.51.74c.08.06.18,0,.24.1s.17.39.32.51c1.22.88,3,1.14,4.23,2,.12.18.25.34.37.52a7.4,7.4,0,0,0,.83.61c.17.11.16.34.28.51s.26.11.38.18c.92.55-.34,2.1-.56,2.43s-.31.73-.55,1a3.7,3.7,0,0,1-.8.46c-.23.16-.46.43-.7.57l-.65.22-.18.19h-.28a6,6,0,0,1-1.49.14h-.83a1.6,1.6,0,0,1-.61.15c0-.7.69-1,.47-2a3.39,3.39,0,0,0-.28-.6c0-.15,0-.31,0-.47s-.33-.26-.47-.42a5.92,5.92,0,0,0-.55-.74,5.43,5.43,0,0,0-1-.52,4.18,4.18,0,0,0-.84-.51,2.37,2.37,0,0,0-.84,0l-.32.23c-.29.41-.35,1.1-.93,1.21-.09.06-.42-.09-.65-.09a.38.38,0,0,1-.23.14,3.32,3.32,0,0,1-.32,1c-.15.49-.12.93-.28,1.45s-.38,1.12-.52,1.58a1.39,1.39,0,0,0,.1.66c0,.28-.06.55-.1.83,0,.07.17.18.19.24.1.25-.11.39,0,.6s.21.12.28.19c.77.92,1.6.77,3,.47a3.3,3.3,0,0,1,1.72.27l1,.1c.41.14.54.59.84.8s.47.1.65.23l.24.32a3.49,3.49,0,0,0,1.16.8l.46-.05a4.24,4.24,0,0,0,1.49.09c.34-.11.5-.51.83-.65l.93-.14c.25-.1.49-.37.75-.46l.41-.05a9.81,9.81,0,0,0,1.44-.8c.1-.13,0-.31.14-.46l.42-.33c.34-.49.58-1,.93-1.49s.8-.56,1-1.07a3,3,0,0,0,0-1.4,11.91,11.91,0,0,0-.24-1.68c0-.16-.25-.23-.32-.38s0-.37,0-.56-.28-.31-.38-.46,0-.33-.14-.52l-.32-.27c-.09-.17.07-.2,0-.38a1.33,1.33,0,0,1-.19-.14,2.45,2.45,0,0,1-.18-.56c-.15-.65.18-1.28-.09-1.72a6.19,6.19,0,0,0-1.08-1,7.27,7.27,0,0,0-.83-.93c-.18-.14-.44-.14-.6-.28s-.07-.22-.14-.28c-.22-.2-.63-.18-.89-.33s-.3-.32-.46-.42-.38-.09-.6-.19a7.57,7.57,0,0,1-1-.51c-.29-.18-.56-.47-.83-.65l-.37-.14c-.19-.15-.27-.42-.47-.56a11.56,11.56,0,0,1,.47-2.89c.12-.46-.12-1.19,0-1.55s.59-.81.83-1.2.23-.69.47-.94.62-.23.88-.37a6.51,6.51,0,0,0,1-.89h.42c.34.24.09.85.18,1.26a2.73,2.73,0,0,0,.42,1c.17.11.34.21.51.33s0,.33.19.42.39.06.56.18l.46.51c.14.1.33.09.47.19s.15.26.23.38l.65.6c.09.13.15.38.28.46s.61.13.92.24c.08,0,.21.16.28.19a4.41,4.41,0,0,0,1.77,0c.15,0,.39.1.6.05,1.43-.34,2.35-.37,2.74-1.77a1.47,1.47,0,0,0,0-.61A2.33,2.33,0,0,0,650.63,239.63Z" transform="translate(-149.04 -195.46)"/><path class="cls-1" d="M606,239c-.17-.09-.31,0-.46-.13s-.28-.31-.42-.38a7.93,7.93,0,0,0-1.44-.42l-.51.05-.7-.19-.93-.05a3.14,3.14,0,0,0-1.44-.13,7.18,7.18,0,0,0-1.16.37l-.74,0-.32.32h-.33a1.35,1.35,0,0,0-.75.51h-.09a8.93,8.93,0,0,0-2.09-2.24l-.6-.18c-.09-.07-.07-.19-.14-.29a1.89,1.89,0,0,0-.65-.41c-.39-.17-.92,0-1.39-.1-.12,0-.27-.15-.38-.18h-1a2.61,2.61,0,0,0-.41.61c-.32.95.62,1.8.41,2.61-.14.49-.27,1.27-.37,1.81,0,.24.08.45,0,.75s-.18.36-.23.56v.89c-.14.62-.14,1.4-.33,2,0,.15-.19.36-.23.51V246c0,.06-.12.19-.14.24v1a3.1,3.1,0,0,0-.24,1.49c0,.18,0,.38,0,.56a1.64,1.64,0,0,0,.1.37,2,2,0,0,1-.24,1.08c-.07.2-.29.59-.18.79-.07.42-.6.46-.74,1a3.54,3.54,0,0,0,0,1.45c.11.53,0,1,.08,1.48s.42,1.06.56,1.64a3.39,3.39,0,0,1,0,1,6.1,6.1,0,0,0,.18,2c.08.34-.11.86,0,1.13s.34.52.51.78c.46.72.84,1.44,1.72,1.73.28.09.65,0,1,.05.11,0,.33.16.47.13a2.64,2.64,0,0,0,1.53-1,2.49,2.49,0,0,0-.09-1.54c-.07-.26.08-.33,0-.56s-.28-.39-.33-.6.06-.5.09-.75-.24-.46-.18-.7.2-.19.14-.42-.16-.2-.19-.28v-.33c-.12-.52-.16-1.09-.32-1.58-.07-.18-.23-.35-.28-.52s.12-.5.14-.7-.11-.5,0-.74.14-.49.18-.66-.07-.28-.09-.37c0-.33,0-.65,0-1a2.53,2.53,0,0,1,0-1.13v-.51c.09-.1.19-.19.28-.28.16-.29.28-.63.42-.89s.06-.56.28-.7.57-.19.83-.37.3-.44.46-.61.64-.29.8-.55a4.15,4.15,0,0,0,.13-2.06c0-.56,0-1,.24-1.3s.35-.2.46-.38.21-.5.42-.65.53-.2.65-.42.11-.78.33-1.07c.28-.8,2-.64,2.73-.33l.14.13.65.1c.09,0,.21.19.28.23l.51.19a8,8,0,0,0,1.39.84,1.2,1.2,0,0,0,.71-.05h1.15A1.61,1.61,0,0,0,607,241,2.07,2.07,0,0,0,606,239Z" transform="translate(-149.04 -195.46)"/><path class="cls-1" d="M558.54,263.53c.3.15.32.59,1,.43l.84-.23c.21-.18.21-.41.51-.52a18.33,18.33,0,0,1,.28-1.91c.13-.57-.23-1,0-1.5.38-1.11,1-2.11,1.39-3.16.09-.26,0-.55.09-.85l.33-.32c0-.24.06-.47.08-.7s.28-.4.42-.61c-.1-.39.19-.48.29-.79s0-.56,0-.84.31-.34.41-.51.13-.37.19-.56a2,2,0,0,1,1.25.19l.24.23a7.43,7.43,0,0,0,1,.18,5,5,0,0,0,2,0,8,8,0,0,1,2.73.13c.43.1.51-.1.88.1,0,.14.17.37.19.47.1.3-.2.73-.28.92,0,.34-.09.66-.14,1s-.27.67-.37,1c-.18.68,0,1.32-.32,1.78-.08.1-.19.18-.33.09a1.18,1.18,0,0,0-.6.1,4.35,4.35,0,0,0,.32,1.07c0,.15,0,.31,0,.47.11.32.34.72.47,1l.09.61a4.55,4.55,0,0,0,.6.88c.08.22.16.44.23.65.34.5,1.28.81,1.72,1.27,1.06,0,2.27-1.5,2.55-2.38.12-.34,0-.74.1-1.12s.38-.79.47-1.13a3.06,3.06,0,0,1,0-.32c0-.51,0-1,0-1.54.27-1.23.23-2.72.6-3.92.27-.07.63-.21.88-.28l1.21.14c1.3-.17,2.86-.39,3.16-1.58.11-.45-.19-.75-.28-1a2.09,2.09,0,0,0-.93-1.3l-.65-.19c-.21-.13-.35-.43-.61-.52l-1.11,0c-.16,0-.26-.18-.38-.23l-.83-.14c-.19-.09-.35-.31-.55-.42a4,4,0,0,1,.09-1.54v-1.26c0-.1.11-.39.14-.51v-.7c.06-.21.3-.41.37-.61,0-.59.09-1.18.14-1.77,0-1-1.17-2.49-.47-3.41.19-.36.62-.32,1-.47a2.46,2.46,0,0,0,1.24-.88c0-.17.07-.34.1-.52.32-1.09-.45-1.75-1-2.28l-.37-.42a9.5,9.5,0,0,0-1.63-.42c-.5-.14-1.26.11-1.67-.14-.38,0-.85-.52-1.07-.74a1.48,1.48,0,0,0-.65.37l0,0c-.17-.28-.33-.66-.64-.79s-.32-.06-.47-.09a1.19,1.19,0,0,0-.93-.28,6.31,6.31,0,0,1-.93.55c-.18.08-.32,0-.47.09s-.36.42-.55.52-.36,0-.46.14-.1.28-.14.42c-.35.65-.57,1.5-1,2.1-.21.32-.65.65-.88,1-.12.16-.12.39-.24.56-.34.54-.78,1.08-1.11,1.64-.14.24,0,.58-.14.88s-.63.87-.78,1.16.06.42-.06.61-.56.44-.74.7l-.33.56v.37c-.06.14-.33.22-.41.38s-.05.32-.14.47a9.53,9.53,0,0,0-.65.93c-.06.26-.13.52-.18.79a4.1,4.1,0,0,1-.8,1.22c-.35,0-.34-.19-.55-.29l-.93-.14-.32.28a3,3,0,0,0,.27,1.5c.2.4.63.7.42,1.4a6.92,6.92,0,0,1-.51,1.06c-.05.22-.09.45-.14.66s-.29.52-.38.75,0,.25,0,.37-.33.44-.42.65v.61a4.42,4.42,0,0,1-.32.66c-.23.35-.76.53-1,.86v8.7s0,0,0,0C558.07,263.48,558.33,263.44,558.54,263.53Zm8.4-17.16c.13-.35,0-.77,0-1.07.15-.51.52-.67.79-1a4.4,4.4,0,0,1,.6-.8,2.29,2.29,0,0,0,.47-.32c.12-.18.15-.39.28-.57s.47-.41.6-.65.08-.71.28-.88.4-.06.51-.19c.27-.34.27-.92.51-1.26a4.37,4.37,0,0,1,.79-.61c.13-.11.07-.37.18-.51s.15-.06.19-.09a3.06,3.06,0,0,0,.51-.71h.23a4.5,4.5,0,0,1,0,1.83l-.18,1c0,.27,0,1.06,0,1.22a11.33,11.33,0,0,1,.09,3.73,10.84,10.84,0,0,1-.28,2.19v.1a4.08,4.08,0,0,1-1.16,0,2.52,2.52,0,0,0-1,.09,3.33,3.33,0,0,1-1.35-.09,1.64,1.64,0,0,0-.79.14,1.45,1.45,0,0,1-1.58-.7C566.59,246.91,566.88,246.58,566.94,246.37Z" transform="translate(-149.04 -195.46)"/></svg>