<svg width="45" height="45" viewBox="0 0 45 45" fill="none" xmlns="http://www.w3.org/2000/svg">
<path d="M13.6419 28.2968C13.4309 28.0859 13.1448 27.9674 12.8465 27.9674H7.125C6.50368 27.9674 6 27.4637 6 26.8424V18.9712C6 18.3499 6.50368 17.8462 7.125 17.8462H12.8468C13.1451 17.8462 13.4311 17.7277 13.6421 17.5168L19.8296 11.3316C20.5384 10.6231 21.75 11.1251 21.75 12.1272V33.6866C21.75 34.6887 20.5384 35.1907 19.8296 34.4822L13.6419 28.2968Z" stroke="#1A1A1E" stroke-width="2" stroke-linecap="round" stroke-linejoin="round"/>
<path d="M24.6833 15.9055C25.5444 16.3894 26.3114 16.9954 26.952 17.7007C27.8277 18.6647 28.4448 19.7897 28.7573 20.9919C29.0698 22.1942 29.0698 23.4427 28.7573 24.6449C28.4448 25.8471 27.8277 26.9721 26.952 27.9362C26.3118 28.641 25.5453 29.2467 24.6849 29.7305" stroke="#1A1A1E" stroke-width="2" stroke-linecap="round" stroke-linejoin="round"/>
<path d="M30.7346 11.3774C31.8109 12.0949 32.7852 12.9288 33.633 13.8622C35.1655 15.5493 36.2454 17.518 36.7923 19.6219C37.3393 21.7258 37.3392 23.9108 36.7923 26.0146C36.2453 28.1185 35.1655 30.0872 33.633 31.7744C32.7855 32.7073 31.8117 33.541 30.736 34.2581" stroke="#1A1A1E" stroke-width="2" stroke-linecap="round" stroke-linejoin="round"/>
</svg>
