<svg width="45" height="45" viewBox="0 0 45 45" fill="none" xmlns="http://www.w3.org/2000/svg">
<path d="M22.2904 10.4062C19.9035 10.4062 17.6143 11.3545 15.9265 13.0423L15.5735 13.3952C13.8857 15.083 12.9375 17.3722 12.9375 19.7592V21.4119C12.9375 24.4499 11.7307 27.3634 9.58247 29.5116C9.20953 29.8846 9 30.3904 9 30.9178C9 32.016 9.89032 32.9063 10.9885 32.9063H34.0114C35.1097 32.9063 36 32.016 36 30.9178C36 30.3904 35.7905 29.8846 35.4175 29.5116C33.2693 27.3634 32.0625 24.4499 32.0625 21.4119V19.7592C32.0625 17.3722 31.1143 15.083 29.4265 13.3952L29.0735 13.0423C27.3857 11.3545 25.0965 10.4062 22.7096 10.4062H22.2904Z" stroke="#1A1A1E" stroke-width="2" stroke-linecap="round" stroke-linejoin="round"/>
<path d="M18.9871 32.9062C18.7382 33.4244 18.6029 33.9994 18.6029 34.5937C18.6029 35.986 19.3457 37.2726 20.5514 37.9687C21.7572 38.6649 23.2428 38.6649 24.4486 37.9687C25.6543 37.2726 26.3971 35.986 26.3971 34.5937C26.3971 33.9994 26.2618 33.4244 26.0128 32.9062" stroke="#1A1A1E" stroke-width="2" stroke-linecap="round" stroke-linejoin="round"/>
<path d="M23.625 10.4529V8.71875C23.625 8.09741 23.1213 7.59375 22.5 7.59375C21.8787 7.59375 21.375 8.09741 21.375 8.71875V10.4529" stroke="#1A1A1E" stroke-width="2" stroke-linecap="round" stroke-linejoin="round"/>
<path d="M35.9999 19.4063C35.9999 17.6335 35.6507 15.878 34.9723 14.2401C34.2939 12.6022 33.2995 11.1139 32.0459 9.86035" stroke="#1A1A1E" stroke-width="2" stroke-linecap="round" stroke-linejoin="round"/>
<path d="M9 19.4063C9 17.6335 9.3492 15.878 10.0276 14.2401C10.7061 12.6022 11.7004 11.1139 12.954 9.86035" stroke="#1A1A1E" stroke-width="2" stroke-linecap="round" stroke-linejoin="round"/>
</svg>
