<svg width="200" height="200" viewBox="0 0 200 200" fill="none" xmlns="http://www.w3.org/2000/svg">
<circle cx="100" cy="100" r="98.1" stroke="#979797" stroke-width="3.8"/>
<path d="M93.1527 43.5009C96.9242 37.9734 105.076 37.9734 108.847 43.5009L147.156 99.6456C151.459 105.952 146.943 114.5 139.309 114.5H62.6912C55.0572 114.5 50.5412 105.952 54.8439 99.6456L93.1527 43.5009Z" fill="#979797"/>
<path d="M72.9139 155H76.2389V131.831H84.0563V129.072H65.0965V131.831H72.9139V155ZM97.2621 155.495C103.771 155.495 108.298 150.26 108.298 141.948C108.298 133.67 103.771 128.612 97.2621 128.612C90.7182 128.612 86.1905 133.635 86.1905 141.948C86.1905 150.26 90.7182 155.495 97.2621 155.495ZM97.2621 152.595C92.5929 152.595 89.5509 148.421 89.5509 141.948C89.5509 135.474 92.5929 131.477 97.2621 131.477C101.896 131.477 104.973 135.474 104.973 141.948C104.973 148.421 101.896 152.595 97.2621 152.595ZM113.929 155H117.219V144.707H121.464C127.159 144.707 131.05 142.16 131.05 136.712C131.05 131.017 127.123 129.072 121.322 129.072H113.929V155ZM117.219 142.054V131.76H120.898C125.496 131.76 127.795 132.928 127.795 136.712C127.795 140.391 125.602 142.054 121.074 142.054H117.219Z" fill="#979797"/>
<path d="M72.9139 155H72.3439C72.3439 155.315 72.5991 155.57 72.9139 155.57V155ZM76.2389 155V155.57C76.5537 155.57 76.8089 155.315 76.8089 155H76.2389ZM76.2389 131.831V131.261C75.9241 131.261 75.6689 131.516 75.6689 131.831H76.2389ZM84.0563 131.831V132.401C84.3711 132.401 84.6263 132.146 84.6263 131.831H84.0563ZM84.0563 129.072H84.6263C84.6263 128.757 84.3711 128.502 84.0563 128.502V129.072ZM65.0965 129.072V128.502C64.7817 128.502 64.5265 128.757 64.5265 129.072H65.0965ZM65.0965 131.831H64.5265C64.5265 132.146 64.7817 132.401 65.0965 132.401V131.831ZM72.9139 131.831H73.4839C73.4839 131.516 73.2287 131.261 72.9139 131.261V131.831ZM72.9139 155.57H76.2389V154.43H72.9139V155.57ZM76.8089 155V131.831H75.6689V155H76.8089ZM76.2389 132.401H84.0563V131.261H76.2389V132.401ZM84.6263 131.831V129.072H83.4863V131.831H84.6263ZM84.0563 128.502H65.0965V129.642H84.0563V128.502ZM64.5265 129.072V131.831H65.6665V129.072H64.5265ZM65.0965 132.401H72.9139V131.261H65.0965V132.401ZM72.3439 131.831V155H73.4839V131.831H72.3439ZM97.2621 156.065C100.681 156.065 103.603 154.684 105.66 152.202C107.709 149.729 108.868 146.203 108.868 141.948H107.728C107.728 146.004 106.624 149.252 104.782 151.475C102.948 153.688 100.351 154.925 97.2621 154.925V156.065ZM108.868 141.948C108.868 137.709 107.709 134.233 105.656 131.808C103.596 129.373 100.675 128.042 97.2621 128.042V129.182C100.358 129.182 102.954 130.38 104.786 132.544C106.624 134.717 107.728 137.909 107.728 141.948H108.868ZM97.2621 128.042C93.834 128.042 90.9032 129.363 88.838 131.793C86.78 134.215 85.6205 137.691 85.6205 141.948H86.7605C86.7605 137.891 87.8648 134.699 89.7067 132.532C91.5413 130.373 94.1463 129.182 97.2621 129.182V128.042ZM85.6205 141.948C85.6205 146.203 86.7798 149.73 88.8338 152.203C90.8955 154.685 93.8261 156.065 97.2621 156.065V154.925C94.1542 154.925 91.549 153.688 89.7108 151.474C87.865 149.252 86.7605 146.004 86.7605 141.948H85.6205ZM97.2621 152.025C95.1187 152.025 93.359 151.076 92.1169 149.364C90.8631 147.636 90.1209 145.103 90.1209 141.948H88.9809C88.9809 145.266 89.7596 148.056 91.1942 150.033C92.6404 152.027 94.7363 153.165 97.2621 153.165V152.025ZM90.1209 141.948C90.1209 138.792 90.8631 136.307 92.113 134.625C93.3507 132.96 95.1095 132.047 97.2621 132.047V130.907C94.7455 130.907 92.6487 131.993 91.1981 133.945C89.7597 135.88 88.9809 138.629 88.9809 141.948H90.1209ZM97.2621 132.047C99.396 132.047 101.156 132.959 102.398 134.626C103.653 136.308 104.403 138.794 104.403 141.948H105.543C105.543 138.628 104.755 135.879 103.312 133.944C101.858 131.994 99.762 130.907 97.2621 130.907V132.047ZM104.403 141.948C104.403 145.101 103.653 147.634 102.395 149.363C101.147 151.077 99.3868 152.025 97.2621 152.025V153.165C99.7712 153.165 101.866 152.026 103.316 150.034C104.755 148.057 105.543 145.267 105.543 141.948H104.403ZM113.929 155H113.359C113.359 155.315 113.614 155.57 113.929 155.57V155ZM117.219 155V155.57C117.534 155.57 117.789 155.315 117.789 155H117.219ZM117.219 144.707V144.137C116.904 144.137 116.649 144.392 116.649 144.707H117.219ZM113.929 129.072V128.502C113.614 128.502 113.359 128.757 113.359 129.072H113.929ZM117.219 142.054H116.649C116.649 142.368 116.904 142.624 117.219 142.624V142.054ZM117.219 131.76V131.19C116.904 131.19 116.649 131.445 116.649 131.76H117.219ZM113.929 155.57H117.219V154.43H113.929V155.57ZM117.789 155V144.707H116.649V155H117.789ZM117.219 145.277H121.464V144.137H117.219V145.277ZM121.464 145.277C124.385 145.277 126.923 144.625 128.743 143.201C130.585 141.761 131.62 139.586 131.62 136.712H130.48C130.48 139.286 129.569 141.108 128.041 142.303C126.492 143.515 124.237 144.137 121.464 144.137V145.277ZM131.62 136.712C131.62 133.717 130.576 131.615 128.689 130.29C126.84 128.992 124.267 128.502 121.322 128.502V129.642C124.178 129.642 126.469 130.124 128.034 131.223C129.56 132.294 130.48 134.012 130.48 136.712H131.62ZM121.322 128.502H113.929V129.642H121.322V128.502ZM113.359 129.072V155H114.499V129.072H113.359ZM117.789 142.054V131.76H116.649V142.054H117.789ZM117.219 132.33H120.898V131.19H117.219V132.33ZM120.898 132.33C123.177 132.33 124.754 132.626 125.755 133.292C126.699 133.919 127.225 134.946 127.225 136.712H128.365C128.365 134.694 127.742 133.245 126.387 132.342C125.088 131.478 123.216 131.19 120.898 131.19V132.33ZM127.225 136.712C127.225 138.433 126.718 139.578 125.781 140.314C124.814 141.074 123.287 141.484 121.074 141.484V142.624C123.389 142.624 125.223 142.202 126.485 141.211C127.776 140.197 128.365 138.67 128.365 136.712H127.225ZM121.074 141.484H117.219V142.624H121.074V141.484Z" fill="#979797"/>
</svg>
