<svg width="80" height="80" viewBox="0 0 80 80" fill="none" xmlns="http://www.w3.org/2000/svg">
<path d="M71.7765 23.7055C71.8273 24.4161 71.8273 25.1269 71.8273 25.8375C71.8273 47.5125 55.33 72.4872 25.1776 72.4872C15.8883 72.4872 7.2589 69.7967 0 65.1269C1.31984 65.2791 2.58875 65.3298 3.95937 65.3298C11.6242 65.3298 18.6801 62.7411 24.3147 58.3248C17.1066 58.1725 11.0659 53.4517 8.98468 46.9542C9.99999 47.1064 11.0151 47.208 12.0812 47.208C13.5533 47.208 15.0255 47.0049 16.3959 46.6497C8.88328 45.1267 3.24859 38.5278 3.24859 30.5583V30.3553C5.43125 31.5736 7.96953 32.335 10.6597 32.4364C6.24343 29.4922 3.35015 24.4669 3.35015 18.7816C3.35015 15.736 4.16219 12.9441 5.58359 10.5075C13.6547 20.4567 25.7867 26.9541 39.3906 27.6649C39.1369 26.4466 38.9845 25.1777 38.9845 23.9086C38.9845 14.873 46.2942 7.5127 55.3804 7.5127C60.1012 7.5127 64.3651 9.49238 67.3601 12.6903C71.0656 11.9797 74.6189 10.6091 77.7662 8.73098C76.5478 12.5382 73.959 15.7361 70.5581 17.7664C73.8576 17.4113 77.0556 16.4974 79.9996 15.2285C77.7665 18.4771 74.9745 21.3703 71.7765 23.7055V23.7055Z" fill="white"/>
</svg>
