<svg width="80" height="72" viewBox="0 0 80 72" fill="none" xmlns="http://www.w3.org/2000/svg">
<path d="M76.3409 17.2335C75.4686 13.9488 72.8983 11.3619 69.6348 10.4839C63.7195 8.88867 39.9999 8.88867 39.9999 8.88867C39.9999 8.88867 16.2805 8.88867 10.3651 10.4839C7.10161 11.362 4.53134 13.9488 3.65897 17.2335C2.07397 23.1873 2.07397 35.6092 2.07397 35.6092C2.07397 35.6092 2.07397 48.0312 3.65897 53.9849C4.53134 57.2696 7.10161 59.7488 10.3651 60.6267C16.2805 62.222 39.9999 62.222 39.9999 62.222C39.9999 62.222 63.7194 62.222 69.6348 60.6267C72.8983 59.7488 75.4686 57.2696 76.3409 53.9849C77.9259 48.0312 77.9259 35.6092 77.9259 35.6092C77.9259 35.6092 77.9259 23.1873 76.3409 17.2335V17.2335ZM32.2423 46.8874V24.331L52.0672 35.6095L32.2423 46.8874V46.8874Z" fill="white"/>
</svg>
