<svg width="80" height="80" viewBox="0 0 80 80" fill="none" xmlns="http://www.w3.org/2000/svg">
<g clip-path="url(#clip0_120_9)">
<path d="M39.3815 11.3336L39.3839 11.3326C40.0169 11.0596 40.7499 11.0596 41.3829 11.3326L41.3853 11.3336L67.5838 22.5619C68.6998 23.041 69.3163 24.2339 69.0712 25.4041L69.0711 25.4041L69.0693 25.4133C68.8456 26.5245 67.8544 27.3673 66.4104 27.448L65.2796 27.5113V28.6439V29.5795C65.2796 30.5035 64.6401 31.1889 63.6702 31.1889H16.8861C16.0715 31.1889 15.2767 30.4437 15.2767 29.5795V28.6439V27.5192L14.1543 27.4485C12.9545 27.373 11.9268 26.5583 11.6912 25.4091L11.6909 25.4076C11.4491 24.2363 12.0692 23.0412 13.1823 22.5617C13.1825 22.5616 13.1827 22.5615 13.183 22.5614L39.3815 11.3336ZM24.1095 58.5857V59.7834H25.3072H29.9856H31.1833V58.5857V37.327H36.2734V58.5857V59.7834H37.4711H43.1905H44.3881V58.5857V37.327H49.4783V58.5857V59.7834H50.6759H55.3543H56.552V58.5857V37.327H61.6421V59.0886V59.8288L62.3042 60.1599C62.3053 60.1604 62.3065 60.161 62.3076 60.1616L62.386 60.2138L68.0001 63.9566C68.9265 64.5741 69.3425 65.7343 69.0155 66.8109C68.6891 67.8858 67.7037 68.6162 66.5825 68.6162H14.079C13.0811 68.6162 12.0787 67.9033 11.7483 66.812L11.7483 66.8119C11.4229 65.7371 11.8401 64.5764 12.7712 63.9575L12.7726 63.9566L18.3867 60.2138L18.6784 60.0193L18.7372 59.8852C18.7898 59.8245 18.8421 59.7517 18.8881 59.6654C18.9966 59.4622 19.0387 59.2433 19.0278 59.0371C19.0261 59.0059 19.0233 58.9755 19.0194 58.9462V37.327H24.1095V58.5857ZM40.3834 26.0988C43.1151 26.0988 45.3238 23.89 45.3238 21.1584C45.3238 18.431 43.1158 16.218 40.3834 16.218C37.651 16.218 35.443 18.431 35.443 21.1584C35.443 23.89 37.6518 26.0988 40.3834 26.0988Z" stroke="#6A6A6A" stroke-width="2.39535"/>
</g>
<defs>
<clipPath id="clip0_120_9">
<rect width="59.8837" height="59.8837" fill="white" transform="translate(10.4418 9.93018)"/>
</clipPath>
</defs>
</svg>
