<svg width="80" height="80" viewBox="0 0 80 80" fill="none" xmlns="http://www.w3.org/2000/svg">
<g clip-path="url(#clip0_120_8)">
<path d="M30.1196 13.6945V14.8921H31.3173H48.4269H49.6246V13.6945V9.41706C49.6246 7.71585 51.0006 6.33732 52.7043 6.33732C54.4081 6.33732 55.7841 7.71585 55.7841 9.41706V13.6945V14.8921H56.9817H63.3978C66.2788 14.8921 68.6163 17.2286 68.6163 20.1106V25.329H11.1279V20.1106C11.1279 17.2285 13.4642 14.8921 16.3463 14.8921H22.7625H23.9601V13.6945V9.41706C23.9601 7.71585 25.3361 6.33732 27.0399 6.33732C28.7436 6.33732 30.1196 7.71585 30.1196 9.41706V13.6945ZM11.1279 32.0018H68.6163V67.1621C68.6163 70.0428 66.2786 72.3805 63.3978 72.3805H16.3463C13.4644 72.3805 11.1279 70.043 11.1279 67.1621V32.0018ZM17.2874 45.775C17.2874 47.6108 18.7787 49.1114 20.6238 49.1114H24.9012C26.7389 49.1114 28.2375 47.6128 28.2375 45.775V41.4976C28.2375 39.6599 26.7389 38.1612 24.9012 38.1612H20.6238C18.7787 38.1612 17.2874 39.6618 17.2874 41.4976V45.775ZM34.397 45.775C34.397 47.6128 35.8956 49.1114 37.7334 49.1114H42.0108C43.8485 49.1114 45.3472 47.6128 45.3472 45.775V41.4976C45.3472 39.6599 43.8485 38.1612 42.0108 38.1612H37.7334C35.8956 38.1612 34.397 39.6599 34.397 41.4976V45.775ZM54.843 38.1612C53.0053 38.1612 51.5066 39.6599 51.5066 41.4976V45.775C51.5066 47.6128 53.0053 49.1114 54.843 49.1114H59.1204C60.9582 49.1114 62.4568 47.6128 62.4568 45.775V41.4976C62.4568 39.6599 60.9582 38.1612 59.1204 38.1612H54.843ZM17.2874 62.8847C17.2874 64.7205 18.7787 66.221 20.6238 66.221H24.9012C26.7389 66.221 28.2375 64.7224 28.2375 62.8847V58.6073C28.2375 56.7695 26.7389 55.2709 24.9012 55.2709H20.6238C18.7787 55.2709 17.2874 56.7715 17.2874 58.6073V62.8847ZM37.7334 55.2709C35.8956 55.2709 34.397 56.7695 34.397 58.6073V62.8847C34.397 64.7224 35.8956 66.221 37.7334 66.221H42.0108C43.8485 66.221 45.3472 64.7224 45.3472 62.8847V58.6073C45.3472 56.7695 43.8485 55.2709 42.0108 55.2709H37.7334ZM51.5066 62.8847C51.5066 64.7224 53.0053 66.221 54.843 66.221H59.1204C60.9582 66.221 62.4568 64.7224 62.4568 62.8847V58.6073C62.4568 56.7695 60.9582 55.2709 59.1204 55.2709H54.843C53.0053 55.2709 51.5066 56.7695 51.5066 58.6073V62.8847Z" stroke="#6A6A6A" stroke-width="2.39535"/>
</g>
<defs>
<clipPath id="clip0_120_8">
<rect width="59.8837" height="68.4385" fill="white" transform="translate(9.93024 5.13965)"/>
</clipPath>
</defs>
</svg>
