<svg width="80" height="80" viewBox="0 0 80 80" fill="none" xmlns="http://www.w3.org/2000/svg">
<g clip-path="url(#clip0_120_10)">
<path d="M68.4935 54.843H67.4796L67.3122 55.843C66.554 60.3724 62.6108 63.8256 57.8604 63.8256C53.1099 63.8256 49.1667 60.3724 48.4085 55.843L48.2411 54.843H47.2273H32.5632H31.5494L31.382 55.843C30.6238 60.3724 26.6806 63.8256 21.9301 63.8256C17.1803 63.8256 13.241 60.373 12.4816 55.8427L12.314 54.843H11.3004H7.55805C6.23475 54.843 5.1627 53.7729 5.1627 52.4477V39.8721C5.1627 37.3389 6.73286 35.1752 8.95994 34.2937L9.4395 34.1039L9.63112 33.6251L14.3065 21.9422L14.3066 21.942C15.7619 18.3039 19.2874 15.9186 23.1989 15.9186H43.623C46.5174 15.9186 49.1845 17.2265 51.1179 19.5259L62.3372 33.5466L62.6464 33.9331L63.1382 33.9885C69.5999 34.7167 74.6278 40.3405 74.6278 46.9571V47.0582V52.4477C74.6278 53.7736 73.5584 54.843 72.2325 54.843H68.4935ZM15.3497 32.242L14.6943 33.8837H16.462H29.1162H30.3139V32.6861V21.907V20.7093H29.1162H23.1989C21.2805 20.7093 19.4926 21.7685 18.7478 23.7299L15.3497 32.242ZM33.3081 32.6861V33.8837H34.5057H53.9754H56.4673L54.9106 31.9379L47.3701 22.5122C47.3692 22.5111 47.3683 22.51 47.3674 22.5088C46.451 21.3505 44.9621 20.7093 43.623 20.7093H34.5057H33.3081V21.907V32.6861ZM64.0755 56.4412L64.0876 56.4071L64.0976 56.3723C64.3001 55.6694 64.4476 55.0385 64.4476 54.2442C64.4476 50.6073 61.4973 47.657 57.8604 47.657C54.2234 47.657 51.2732 50.6073 51.2732 54.2442C51.2732 54.8922 51.2797 55.5982 51.66 56.4823C52.5764 59.011 55.005 60.8314 57.8604 60.8314C60.7312 60.8314 63.1706 58.9913 64.0755 56.4412ZM28.1452 56.4412L28.1573 56.4071L28.1674 56.3723C28.3699 55.6694 28.5174 55.0385 28.5174 54.2442C28.5174 50.6073 25.5671 47.657 21.9301 47.657C18.2932 47.657 15.3429 50.6073 15.3429 54.2442C15.3429 54.8922 15.3494 55.5983 15.7298 56.4824C16.6462 59.011 19.0748 60.8314 21.9301 60.8314C24.8009 60.8314 27.2404 58.9913 28.1452 56.4412Z" stroke="#6A6A6A" stroke-width="2.39535"/>
</g>
<defs>
<clipPath id="clip0_120_10">
<rect width="71.8605" height="57.4884" fill="white" transform="translate(3.96509 11.1279)"/>
</clipPath>
</defs>
</svg>
