<svg width="80" height="80" viewBox="0 0 80 80" fill="none" xmlns="http://www.w3.org/2000/svg">
<g clip-path="url(#clip0_120_13)">
<path d="M43.454 61.2444L43.4612 61.2522L43.4684 61.2599C44.0902 61.9147 44.8545 62.3825 45.6843 62.628H13.7315C12.6002 62.628 11.6861 61.7121 11.6861 60.5882C11.6861 52.2943 18.4126 45.5611 26.7038 45.5611H36.1916C37.269 45.5611 38.3237 45.6869 39.3475 45.9128C39.5941 47.0799 40.2588 48.1358 41.2718 48.8519C39.5767 50.0054 38.8181 52.1859 39.4254 54.2351L39.4253 54.2351L39.4291 54.2473C40.2244 56.8298 41.6138 59.2363 43.454 61.2444ZM49.125 62.628H48.4189C48.6482 62.5605 48.8727 62.4761 49.0904 62.3753C49.0995 62.4609 49.1111 62.5451 49.125 62.628ZM66.4347 50.627L66.2787 51.4591L67.0111 51.8838L69.0678 53.0765C68.5235 54.6324 67.6862 56.0655 66.6232 57.2929L64.5774 56.1107L63.846 55.6881L63.2024 56.2352C62.2936 57.0079 61.2516 57.6115 60.1298 58.0063L59.3297 58.2878V59.136V61.5027C57.7619 61.8092 56.1104 61.8173 54.4618 61.5029V59.136V58.2878L53.6616 58.0063C52.5398 57.6115 51.4978 57.0079 50.5891 56.2352L49.947 55.6893L49.2163 56.1094L47.158 57.2929C46.0896 56.0521 45.2529 54.624 44.7186 53.0711L46.766 51.8784L47.4894 51.4571L47.3422 50.633C47.1332 49.4623 47.1332 48.2481 47.3422 47.0774L47.4894 46.2534L46.766 45.832L44.7186 44.6393C45.254 43.0829 46.0909 41.6476 47.1561 40.4175L49.2104 41.6044L49.9418 42.027L50.5853 41.4799C51.4941 40.7072 52.5361 40.1036 53.6579 39.7089L54.458 39.4273V38.5791V36.2102C56.0275 35.9051 57.6865 35.8987 59.3259 36.214V38.5786V39.4269L60.1261 39.7084C61.2479 40.1031 62.2898 40.7068 63.1986 41.4794L63.8422 42.0266L64.5736 41.6039L66.6195 40.4217C67.6826 41.6494 68.5201 43.0827 69.0643 44.639L67.009 45.8362L66.279 46.2615L66.4347 47.0918C66.653 48.2559 66.653 49.463 66.4347 50.627ZM42.2268 27.8954C42.2268 33.8484 37.4015 38.6745 31.4477 38.6745C25.4939 38.6745 20.6686 33.8484 20.6686 27.8954C20.6686 21.9425 25.4939 17.1164 31.4477 17.1164C37.4015 17.1164 42.2268 21.9425 42.2268 27.8954ZM51.1626 48.8548C51.1626 52.0192 53.7339 54.5905 56.8983 54.5905C60.0682 54.5905 62.634 52.0184 62.634 48.8548C62.634 45.6903 60.0627 43.119 56.8983 43.119C53.7339 43.119 51.1626 45.6903 51.1626 48.8548Z" stroke="#6A6A6A" stroke-width="2.39535"/>
</g>
<defs>
<clipPath id="clip0_120_13">
<rect width="59.8837" height="47.907" fill="white" transform="translate(10.4884 15.9187)"/>
</clipPath>
</defs>
</svg>
