<svg width="80" height="80" viewBox="0 0 80 80" fill="none" xmlns="http://www.w3.org/2000/svg">
<path d="M40.4069 69.8139C56.9434 69.8139 70.3488 56.4085 70.3488 39.872C70.3488 23.3356 56.9434 9.93018 40.4069 9.93018C23.8705 9.93018 10.4651 23.3356 10.4651 39.872C10.4651 47.4261 13.2625 54.3268 17.8779 59.5946L12.7683 69.8139H40.4069Z" stroke="#6A6A6A" stroke-width="3.13881" stroke-linecap="round" stroke-linejoin="round"/>
<path d="M40.4073 48.1634V47.7254C40.4073 44.4668 42.1244 41.4494 44.9258 39.785L46.1367 39.0657C49.0104 37.3584 50.7718 34.2631 50.7718 30.9205C50.7718 25.6879 46.5299 21.446 41.2974 21.446H40.4073C34.6831 21.446 30.0428 26.0863 30.0428 31.8105V32.3958" stroke="#6A6A6A" stroke-width="3.13881" stroke-linecap="round" stroke-linejoin="round"/>
<path d="M40.4072 55.5342V57.3768" stroke="#6A6A6A" stroke-width="3.13881" stroke-linecap="round" stroke-linejoin="round"/>
</svg>
