<svg width="300" height="61" viewBox="0 0 300 61" fill="none" xmlns="http://www.w3.org/2000/svg">
<rect width="300" height="60.7143" fill="white"/>
<g clip-path="url(#clip0_91_21)">
<path d="M47.0144 29.3344C41.8073 25.7629 35.1358 27.2344 31.6358 32.5629C30.5086 34.3297 28.8925 35.7312 26.9839 36.5971C25.0753 37.4629 22.9563 37.7559 20.8844 37.4405C18.8124 37.125 16.8767 36.2147 15.3122 34.8201C13.7478 33.4255 12.622 31.6066 12.0716 29.5844V29.5844C12.0748 29.5463 12.0748 29.5081 12.0716 29.4701C12.0739 29.4249 12.0739 29.3796 12.0716 29.3344C11.6662 27.9431 11.4806 26.4971 11.5216 25.0486C11.443 15.3343 21.4001 4.54863 35.7287 4.54863C50.4073 4.54863 58.8073 15.7201 60.9716 21.9343L60.8644 21.6058C58.4803 14.7007 53.7279 8.86294 47.45 5.12769C41.1721 1.39244 33.7742 0.00103162 26.5682 1.20018C19.3622 2.39932 12.8137 6.11154 8.08375 11.6786C3.35382 17.2457 0.748122 24.3079 0.728699 31.6129C0.728699 46.8701 11.7358 59.9344 27.0001 59.9344C39.143 59.9344 47.3573 53.1058 51.1073 43.6986C53.1501 38.5558 51.693 32.5058 47.0144 29.3344Z" fill="#003863"/>
<path d="M61.1644 22.5203C59.3573 16.4631 50.9001 4.54883 35.7287 4.54883C21.4001 4.54883 11.443 15.3345 11.443 25.0345C11.402 26.483 11.5876 27.929 11.993 29.3203C11.8081 28.5989 11.7122 27.8577 11.7073 27.1131C11.7073 17.0131 21.8287 10.0131 32.2215 10.0131C35.568 10.0122 38.8819 10.6705 41.974 11.9505C45.066 13.2305 47.8756 15.1071 50.2422 17.4731C52.6089 19.8391 54.4863 22.6481 55.7671 25.7398C57.048 28.8315 57.7073 32.1452 57.7073 35.4917C57.7171 40.7212 56.2667 45.8496 53.5193 50.2993C50.772 54.749 46.837 58.3433 42.1573 60.6774V60.6774C48.1299 58.5134 53.2907 54.5615 56.9371 49.3596C60.5835 44.1577 62.5385 37.9586 62.5358 31.606C62.5399 28.5255 62.0775 25.4622 61.1644 22.5203V22.5203Z" fill="#E4032E"/>
<path d="M105.657 31.6914V35.0842H93.5144V39.8699H89.593V35.0842H77.2287V31.6914H105.657ZM79.5144 28.5342V16.6128H103.372V28.5057L79.5144 28.5342ZM83.3644 37.2699V43.2699H103.757V46.6628H79.5144V37.2414L83.3644 37.2699ZM99.5573 19.9057H83.3001V25.3128H99.5573V19.9057Z" fill="#575756"/>
<path d="M129.057 44.07H108.772V40.7057H116.922V36.8557C116.564 36.7749 116.215 36.6601 115.879 36.5129C114.989 36.1633 114.167 35.6605 113.45 35.0272C112.77 34.3913 112.219 33.6296 111.829 32.7843C111.432 31.9451 111.229 31.027 111.236 30.0986C111.227 29.1746 111.43 28.2608 111.829 27.4272C112.221 26.5894 112.772 25.8351 113.45 25.2057C114.154 24.5577 114.973 24.0466 115.864 23.6986C116.798 23.338 117.792 23.1563 118.793 23.1629C119.787 23.1536 120.774 23.3355 121.7 23.6986C122.578 24.0438 123.381 24.5556 124.064 25.2057C124.75 25.8301 125.314 26.576 125.729 27.4057C126.135 28.2372 126.343 29.1517 126.336 30.0772C126.341 31.007 126.134 31.9258 125.729 32.7629C125.325 33.6062 124.768 34.3668 124.086 35.0057C123.394 35.6397 122.593 36.143 121.722 36.4914C121.356 36.6551 120.976 36.7843 120.586 36.8772V40.6843H129.079L129.057 44.07ZM116.643 19.3129V16.02H120.807V19.3129H128.329V22.6129H109.122V19.3129H116.643ZM122.572 30.0272C122.568 29.5433 122.466 29.0653 122.272 28.622C122.078 28.1787 121.796 27.7795 121.443 27.4486C120.716 26.7476 119.746 26.356 118.736 26.356C117.726 26.356 116.756 26.7476 116.029 27.4486C115.675 27.7855 115.395 28.1913 115.204 28.641C115.014 29.0906 114.918 29.5746 114.922 30.0629C114.922 31.0745 115.323 32.0447 116.039 32.76C116.754 33.4753 117.724 33.8772 118.736 33.8772C119.747 33.8772 120.718 33.4753 121.433 32.76C122.148 32.0447 122.55 31.0745 122.55 30.0629L122.572 30.0272ZM135.057 47.12H131.243V16.2272H135.057V29.6486H139.007V33.3557H135.057V47.12Z" fill="#575756"/>
<path d="M140.729 22.6129V19.3129H147.279V16.02H151.336V19.3129H157.507V22.6129H150.5L157.872 42.0557L154.507 43.2057L149.3 29.1986L144.136 43.4486L140.664 42.3415L148.05 22.6129H140.729ZM160.072 16.2629H163.643V46.9772H160.072V32.0415H156.05V28.5414H160.072V16.2629ZM166.557 16.2629H170.272V47.1914H166.557V16.2629Z" fill="#575756"/>
<path d="M200.164 37.6917V47.2274H196.314V40.9774H175.6V37.6917H180.522L180.557 34.0846H174.036V30.756H202.472V34.0846H195.914V37.6917H200.164ZM195.879 22.5774C195.884 23.5249 195.672 24.461 195.257 25.3131C194.849 26.1627 194.298 26.9358 193.629 27.5989C192.913 28.2402 192.091 28.7525 191.2 29.1131C190.266 29.4925 189.266 29.6842 188.257 29.6774C187.24 29.6835 186.23 29.4919 185.286 29.1131C184.39 28.7544 183.563 28.242 182.843 27.5989C182.175 26.9339 181.625 26.1612 181.214 25.3131C180.801 24.4592 180.586 23.5227 180.586 22.5739C180.586 21.625 180.801 20.6885 181.214 19.8346C181.628 18.9884 182.178 18.2161 182.843 17.5489C183.548 16.8785 184.371 16.3455 185.272 15.9774C186.215 15.5928 187.224 15.3986 188.243 15.406C189.252 15.398 190.253 15.5923 191.186 15.9774C192.075 16.3495 192.889 16.8822 193.586 17.5489C194.252 18.2146 194.803 18.9871 195.214 19.8346C195.638 20.6871 195.86 21.6255 195.864 22.5774H195.879ZM184.043 37.6917H192.364V34.0846H184.079L184.043 37.6917ZM192.093 22.5774C192.1 22.0804 192.003 21.5873 191.809 21.1297C191.615 20.6722 191.327 20.2603 190.964 19.9203C190.606 19.5676 190.18 19.2899 189.713 19.1035C189.246 18.917 188.746 18.8256 188.243 18.8346C187.736 18.8265 187.233 18.9189 186.762 19.1065C186.291 19.2941 185.862 19.5731 185.5 19.9274C185.135 20.2661 184.844 20.6775 184.648 21.1351C184.451 21.5927 184.352 22.0865 184.357 22.5846C184.352 23.0848 184.451 23.5805 184.648 24.0404C184.845 24.5003 185.135 24.9143 185.5 25.256C185.861 25.6135 186.289 25.8956 186.76 26.0857C187.231 26.2758 187.735 26.3701 188.243 26.3631C188.747 26.371 189.248 26.2777 189.715 26.0888C190.183 25.8998 190.607 25.6191 190.964 25.2631C191.328 24.918 191.616 24.5011 191.811 24.0388C192.005 23.5765 192.101 23.0788 192.093 22.5774V22.5774Z" fill="#575756"/>
<path d="M224.886 31.0347V34.399H206.443V31.0347H212.686V24.3133H216.322V31.0347H224.886ZM220.072 28.1775V20.2633H207.272V16.8347H223.814V28.1918L220.072 28.1775ZM211.643 36.8418V43.1204H233.072V46.5204H207.793V36.8561L211.643 36.8418ZM232.2 35.4561H228.357V16.2275H232.2V23.7918H236.157V27.4633H232.2V35.4561Z" fill="#575756"/>
<path d="M245.015 29.5061V23.4775H248.657V29.5061H257.229V32.7347H238.793V29.5061H245.015ZM252.436 26.7347V20.2633H239.657V16.8561H256.193V26.7347H252.436ZM261.8 41.0204C261.807 41.9758 261.592 42.9197 261.172 43.7775C260.753 44.6254 260.19 45.3939 259.507 46.049C258.827 46.7052 258.03 47.2284 257.157 47.5918C255.242 48.354 253.108 48.354 251.193 47.5918C249.395 46.8903 247.935 45.5248 247.115 43.7775C246.707 42.9159 246.5 41.9734 246.507 41.0204C246.504 40.0563 246.711 39.1031 247.115 38.2275C247.519 37.3679 248.075 36.5886 248.757 35.9275C249.477 35.2876 250.301 34.7754 251.193 34.4133C253.108 33.651 255.242 33.651 257.157 34.4133C258.945 35.1203 260.395 36.4852 261.207 38.2275C261.617 39.1011 261.824 40.0557 261.815 41.0204H261.8ZM258.015 41.0204C258.021 40.5133 257.924 40.0102 257.728 39.5421C257.533 39.0741 257.244 38.651 256.879 38.299C256.521 37.9369 256.093 37.6509 255.622 37.4582C255.151 37.2654 254.645 37.17 254.136 37.1775C253.625 37.1705 253.117 37.2662 252.644 37.4588C252.17 37.6514 251.74 37.9371 251.379 38.299C251.016 38.6441 250.728 39.0598 250.531 39.5203C250.335 39.9809 250.234 40.4768 250.236 40.9775C250.228 41.4815 250.328 41.9814 250.527 42.4443C250.726 42.9072 251.022 43.3226 251.393 43.6633C252.131 44.3784 253.123 44.7715 254.15 44.7561C254.657 44.7642 255.16 44.6718 255.631 44.4842C256.102 44.2966 256.531 44.0176 256.893 43.6633C257.261 43.3207 257.552 42.9044 257.748 42.4416C257.943 41.9788 258.039 41.4799 258.029 40.9775L258.015 41.0204ZM264.572 33.2918H260.729V16.2275H264.579V22.5418H268.529V26.149H264.586L264.572 33.2918Z" fill="#575756"/>
<path d="M270.643 35.7628H299.072V39.1628H286.764V47.1342H282.914V39.1628H270.643V35.7628ZM276.707 20.6413H292.972V16.7271H296.779V31.6056H272.929V16.7271H276.707V20.6413ZM292.972 23.9771H276.707V28.2628H292.972V23.9771Z" fill="#575756"/>
</g>
<defs>
<clipPath id="clip0_91_21">
<rect width="298.357" height="59.9786" fill="white" transform="translate(0.714417 0.712891)"/>
</clipPath>
</defs>
</svg>
