<svg width="80" height="80" viewBox="0 0 80 80" fill="none" xmlns="http://www.w3.org/2000/svg">
<g clip-path="url(#clip0_120_12)">
<path d="M38.8861 20.5324L39.9187 22.2895L40.9512 20.5324L43.7697 15.7363C45.4492 12.8811 48.5185 11.1279 51.8252 11.1279H52.0826C57.1054 11.1279 61.1774 15.1999 61.1774 20.2227C61.1774 21.6945 60.824 23.005 60.1695 24.3891L59.3611 26.0988H61.2522H66.1178C67.5265 26.0988 68.6629 27.2351 68.6629 28.6438V36.1293C68.6629 37.538 67.5265 38.6744 66.1178 38.6744H13.7195C12.3136 38.6744 11.1745 37.5373 11.1745 36.1293V28.6438C11.1745 27.2358 12.3136 26.0988 13.7195 26.0988H18.5851H20.4816L19.6665 24.3864C19.0096 23.0062 18.6599 21.6963 18.6599 20.2227C18.6599 15.1999 22.732 11.1279 27.7548 11.1279H28.0121C31.3187 11.1279 34.3878 12.881 36.0673 15.7359C36.0674 15.736 36.0675 15.7362 36.0676 15.7363L38.8861 20.5324ZM33.2903 17.3679L33.289 17.3657C32.186 15.4978 30.181 14.3466 28.0121 14.3466H27.7548C24.5083 14.3466 21.8787 16.9778 21.8787 20.2227C21.8787 23.469 24.5085 26.0988 27.7548 26.0988H36.328H38.4209L37.3606 24.2943L33.2903 17.3679ZM46.5483 17.3657L46.547 17.3679L42.4768 24.2943L41.4164 26.0988H43.5094H52.0826C55.3288 26.0988 57.9586 23.469 57.9586 20.2227C57.9586 16.9778 55.329 14.3466 52.0826 14.3466H51.8252C49.6563 14.3466 47.6513 15.4978 46.5483 17.3657ZM14.9172 44.8124H34.9783V68.6162H19.3336C16.8946 68.6162 14.9172 66.638 14.9172 64.1998V44.8124ZM44.8591 68.6162V44.8124H64.9201V64.1998C64.9201 66.6378 62.9417 68.6162 60.5037 68.6162H44.8591Z" stroke="#6A6A6A" stroke-width="2.39535"/>
</g>
<defs>
<clipPath id="clip0_120_12">
<rect width="59.8837" height="59.8837" fill="white" transform="translate(9.97681 9.93018)"/>
</clipPath>
</defs>
</svg>
