<svg width="571" height="70" viewBox="0 0 571 70" fill="none" xmlns="http://www.w3.org/2000/svg">
<path d="M161.283 49.1763H156.057V60.6614H198.679V55.4179H161.283V49.1763Z" fill="white"/>
<path d="M143.607 52.6848H105.69V57.968H143.607V60.6611H148.833V28.4551H143.607V52.6848Z" fill="white"/>
<path d="M12.41 29.8413C9.95555 29.8413 7.5562 30.5716 5.51539 31.9398C3.47457 33.3079 1.88395 35.2526 0.944663 37.5278C0.00537906 39.803 -0.240383 42.3066 0.23846 44.722C0.717303 47.1373 1.89925 49.356 3.63482 51.0974C5.37039 52.8387 7.58163 54.0246 9.98894 54.5051C12.3962 54.9855 14.8915 54.7389 17.1591 53.7965C19.4268 52.8541 21.3649 51.2581 22.7286 49.2105C24.0922 47.1628 24.82 44.7555 24.82 42.2928C24.82 40.6577 24.499 39.0385 23.8754 37.5278C23.2517 36.0171 22.3376 34.6445 21.1852 33.4883C20.0328 32.332 18.6648 31.4149 17.1591 30.7891C15.6535 30.1634 14.0397 29.8413 12.41 29.8413ZM12.41 49.2235C11.0438 49.2235 9.7083 48.817 8.57235 48.0555C7.4364 47.2939 6.55104 46.2115 6.02822 44.9451C5.5054 43.6787 5.3686 42.2851 5.63514 40.9407C5.90167 39.5963 6.55955 38.3613 7.5256 37.3921C8.49164 36.4228 9.72247 35.7627 11.0624 35.4953C12.4024 35.2279 13.7912 35.3651 15.0534 35.8897C16.3156 36.4142 17.3945 37.3026 18.1535 38.4423C18.9125 39.5821 19.3176 40.922 19.3176 42.2928C19.3187 43.2033 19.1407 44.105 18.7939 44.9463C18.4472 45.7876 17.9384 46.5521 17.2967 47.1959C16.6551 47.8397 15.8932 48.3501 15.0547 48.6981C14.2161 49.046 13.3174 49.2246 12.41 49.2235V49.2235Z" fill="white"/>
<path d="M48.2901 28.4551H43.064V60.6531H48.2901V28.4551Z" fill="white"/>
<path d="M33.8433 33.6986H26.6121V38.9422H33.8433V45.1204H26.6121V50.364H33.8433V60.6611H39.0694V28.4551H33.8433V33.6986Z" fill="white"/>
<path d="M191.131 50.3799H196.358V28.4551H191.131V35.2432H183.284V40.4868H191.131V50.3799Z" fill="white"/>
<path d="M158.33 46.2458L168.238 37.6042L178.145 46.2458L181.579 42.2854L173.195 34.9824H180.419V29.731H156.057V34.9824H163.272L154.896 42.2854L158.33 46.2458Z" fill="white"/>
<path d="M117.532 48.8831C119.554 48.8846 121.532 48.2842 123.214 47.1577C124.897 46.0312 126.208 44.4292 126.983 42.5546C127.758 40.68 127.961 38.6169 127.567 36.6264C127.173 34.6359 126.199 32.8075 124.769 31.3725C123.338 29.9375 121.516 28.9604 119.532 28.5649C117.548 28.1693 115.492 28.3732 113.624 29.1505C111.755 29.9278 110.159 31.2438 109.036 32.9318C107.913 34.6199 107.315 36.6041 107.316 38.6335C107.316 41.3519 108.393 43.9589 110.308 45.881C112.224 47.8032 114.822 48.8831 117.532 48.8831ZM117.532 33.889C118.469 33.889 119.384 34.1677 120.163 34.6899C120.942 35.2121 121.549 35.9544 121.908 36.8228C122.266 37.6912 122.36 38.6467 122.177 39.5686C121.995 40.4905 121.543 41.3373 120.881 42.002C120.219 42.6666 119.375 43.1192 118.456 43.3026C117.537 43.486 116.585 43.3919 115.719 43.0322C114.854 42.6724 114.114 42.0633 113.593 41.2818C113.073 40.5002 112.795 39.5814 112.795 38.6414C112.795 37.381 113.294 36.1722 114.182 35.2809C115.071 34.3897 116.276 33.889 117.532 33.889Z" fill="white"/>
<path d="M227.659 47.8218C225.473 47.8218 223.336 48.4722 221.519 49.6906C219.701 50.9091 218.285 52.641 217.448 54.6673C216.611 56.6936 216.393 58.9232 216.819 61.0743C217.246 63.2254 218.298 65.2013 219.844 66.7521C221.389 68.3029 223.359 69.3591 225.503 69.787C227.647 70.2148 229.869 69.9952 231.888 69.1559C233.908 68.3166 235.634 66.8953 236.848 65.0717C238.063 63.2481 238.711 61.1041 238.711 58.9109C238.711 55.9699 237.547 53.1493 235.474 51.0697C233.401 48.9901 230.59 47.8218 227.659 47.8218V47.8218ZM227.659 64.4951C226.566 64.4951 225.498 64.1699 224.589 63.5606C223.68 62.9514 222.972 62.0855 222.553 61.0723C222.135 60.0592 222.026 58.9444 222.239 57.8688C222.452 56.7933 222.978 55.8053 223.751 55.0299C224.524 54.2545 225.509 53.7264 226.581 53.5125C227.653 53.2985 228.764 53.4084 229.774 53.828C230.783 54.2477 231.646 54.9583 232.254 55.8701C232.861 56.7819 233.185 57.8539 233.185 58.9505C233.185 60.421 232.603 61.8313 231.566 62.8711C230.53 63.9109 229.124 64.4951 227.659 64.4951Z" fill="white"/>
<path d="M226.427 39.5447H208.633V34.9506H226.427V29.707H203.407V44.7882H226.427V39.5447Z" fill="white"/>
<path d="M242.161 35.3937V28.4551H236.935V46.2135H242.161V40.6452H250V35.3937H242.161Z" fill="white"/>
<path d="M77.7127 24.0594L91.9226 32.3208L94.5357 27.7743L77.7127 18L60.8818 27.7743L63.4949 32.3208L77.7127 24.0594Z" fill="white"/>
<path d="M80.3257 41.2868V39.1877H99.0196V34.1343H56.3977V39.1877H75.0996V41.2868H56.3977V46.3482H93.8014V48.4472H56.3977V60.661H99.0196V55.5996H61.6238V53.5086H99.0196V41.2868H80.3257Z" fill="white"/>
<path d="M348.885 64.9446L356.77 69.8642L373.551 43.0052L390.333 69.8642L398.218 64.9446L373.551 25.4741L348.885 64.9446Z" fill="white"/>
<path d="M410.022 38.8131H396.944V46.6868H410.022V69.876H419.304V25.4858H410.022V38.8131Z" fill="white"/>
<path d="M542.795 34.5168V31.3469C544.618 30.6433 546.252 29.5236 547.567 28.077C548.881 26.6305 549.84 24.897 550.366 23.0146C550.892 21.1323 550.972 19.153 550.598 17.2345C550.225 15.316 549.408 13.5112 548.214 11.9639H562.473V5.03322H542.795V0H533.512V5.03322H513.856V11.9639H528.127C526.935 13.5113 526.12 15.3153 525.747 17.2326C525.374 19.15 525.453 21.1279 525.978 23.0094C526.503 24.8908 527.459 26.624 528.771 28.0713C530.083 29.5186 531.714 30.6401 533.535 31.3469V34.5168H505.778V41.4361H570.54V34.5168H542.795ZM533.774 19.5875C533.774 18.7201 534.031 17.8722 534.513 17.151C534.995 16.4298 535.679 15.8677 536.481 15.5358C537.282 15.2038 538.164 15.117 539.015 15.2862C539.865 15.4554 540.647 15.8731 541.26 16.4864C541.874 17.0998 542.291 17.8812 542.46 18.7319C542.63 19.5827 542.543 20.4645 542.211 21.2659C541.879 22.0672 541.317 22.7521 540.596 23.234C539.874 23.7159 539.027 23.9731 538.159 23.9731C536.996 23.9731 535.881 23.5111 535.058 22.6886C534.236 21.8662 533.774 20.7507 533.774 19.5875Z" fill="white"/>
<path d="M496.61 62.001H429.019V69.8746H496.61V62.001Z" fill="white"/>
<path d="M430.951 25.4858V57.4917H494.497V50.0271H440.245V45.2211H494.497V37.7565H440.245V32.9505H494.497V25.4858H430.951Z" fill="white"/>
<path d="M570.54 43.9922H505.778V50.9115H561.246V53.4792H505.778V69.8741H570.54V62.9435H515.061V60.3985H570.54V43.9922Z" fill="white"/>
<path d="M298.962 35.2314H289.679V44.1049H270.16V51.9786H337.717V44.1049H298.962V35.2314Z" fill="white"/>
<path d="M270.16 69.8745H337.717V62.0008H279.442V54.3203H270.16V69.8745Z" fill="white"/>
<path d="M280.828 16.0664V22.997H316.686V25.9056H280.828V32.8249H316.686V39.801H325.968V16.0664H280.828Z" fill="white"/>
</svg>
