<svg width="636" height="76" viewBox="0 0 636 76" fill="none" xmlns="http://www.w3.org/2000/svg">
<path d="M161.289 43.187H156.056V54.6704H198.683V49.4276H161.289V43.187Z" fill="white"/>
<path d="M143.61 46.6953H105.695V51.9697H143.61V54.6703H148.835V22.4614H143.61V46.6953Z" fill="white"/>
<path d="M12.4069 23.8472C9.95302 23.8472 7.55429 24.5773 5.51399 25.9453C3.47369 27.3133 1.88347 29.2576 0.944423 31.5325C0.0053777 33.8073 -0.240322 36.3105 0.238399 38.7255C0.717121 41.1405 1.89876 43.3588 3.63389 45.0999C5.36902 46.841 7.57971 48.0267 9.98641 48.507C12.3931 48.9874 14.8877 48.7409 17.1548 47.7986C19.4218 46.8563 21.3595 45.2606 22.7228 43.2133C24.0861 41.166 24.8137 38.759 24.8137 36.2967C24.8137 32.9949 23.5066 29.8283 21.1798 27.4936C18.8531 25.1588 15.6974 23.8472 12.4069 23.8472V23.8472ZM12.4069 43.2263C11.041 43.2263 9.70584 42.8199 8.57018 42.0585C7.43452 41.297 6.54938 40.2148 6.02669 38.9486C5.504 37.6823 5.36724 36.289 5.63371 34.9448C5.90017 33.6006 6.55789 32.3659 7.52369 31.3967C8.48949 30.4276 9.72 29.7676 11.0596 29.5002C12.3992 29.2329 13.7877 29.3701 15.0496 29.8946C16.3115 30.4191 17.39 31.3073 18.1489 32.4468C18.9077 33.5864 19.3127 34.9262 19.3127 36.2967C19.3065 38.1304 18.5761 39.8869 17.2817 41.1813C15.9873 42.4758 14.2343 43.2026 12.4069 43.2026V43.2263Z" fill="white"/>
<path d="M48.2931 22.4614H43.0684V54.6703H48.2931V22.4614Z" fill="white"/>
<path d="M33.8422 27.7042H26.6128V32.9548H33.8422V39.1242H26.6128V44.3669H33.8422V54.6703H39.067V22.4614H33.8422V27.7042Z" fill="white"/>
<path d="M191.131 44.3907H196.364V22.4614H191.131V29.2485H183.286V34.4992H191.131V44.3907Z" fill="white"/>
<path d="M158.329 40.2486L168.242 31.6084L178.147 40.2486L181.58 36.2888L173.199 28.987H180.42V23.7363H156.056V28.987H163.278L154.896 36.2888L158.329 40.2486Z" fill="white"/>
<path d="M117.526 42.8867C119.546 42.8882 121.521 42.289 123.202 41.1648C124.883 40.0406 126.194 38.4417 126.97 36.5701C127.746 34.6986 127.952 32.6383 127.562 30.6494C127.171 28.6605 126.203 26.8323 124.777 25.3957C123.352 23.959 121.535 22.9783 119.555 22.5775C117.574 22.1767 115.52 22.3737 113.652 23.1436C111.783 23.9136 110.183 25.2219 109.055 26.9034C107.927 28.5849 107.321 30.5642 107.313 32.5912C107.307 33.941 107.566 35.2787 108.077 36.5275C108.587 37.7763 109.339 38.9117 110.288 39.8683C111.237 40.825 112.364 41.5841 113.607 42.1021C114.849 42.62 116.181 42.8867 117.526 42.8867V42.8867ZM117.526 27.887C118.462 27.887 119.378 28.1657 120.157 28.6878C120.935 29.2099 121.542 29.9521 121.901 30.8203C122.259 31.6886 122.353 32.644 122.17 33.5658C121.988 34.4875 121.537 35.3342 120.874 35.9987C120.212 36.6633 119.368 37.1158 118.45 37.2992C117.531 37.4825 116.579 37.3884 115.714 37.0288C114.848 36.6691 114.109 36.0601 113.588 35.2787C113.068 34.4972 112.79 33.5786 112.79 32.6388C112.79 31.3785 113.289 30.1699 114.177 29.2788C115.065 28.3876 116.27 27.887 117.526 27.887V27.887Z" fill="white"/>
<path d="M227.656 41.8252C225.471 41.8252 223.335 42.4754 221.518 43.6937C219.701 44.912 218.284 46.6437 217.448 48.6696C216.612 50.6956 216.393 52.9249 216.819 55.0756C217.246 57.2264 218.298 59.2019 219.843 60.7525C221.388 62.3031 223.357 63.3591 225.501 63.7869C227.644 64.2147 229.866 63.9951 231.885 63.156C233.904 62.3168 235.629 60.8957 236.844 59.0724C238.058 57.2491 238.706 55.1055 238.706 52.9126C238.706 49.972 237.542 47.1519 235.469 45.0726C233.397 42.9933 230.587 41.8252 227.656 41.8252V41.8252ZM227.656 58.5038C226.564 58.5038 225.495 58.1786 224.587 57.5695C223.678 56.9603 222.97 56.0945 222.552 55.0816C222.134 54.0686 222.025 52.9539 222.238 51.8786C222.451 50.8032 222.977 49.8154 223.75 49.0401C224.522 48.2648 225.507 47.7368 226.578 47.5229C227.65 47.309 228.761 47.4188 229.771 47.8384C230.78 48.258 231.643 48.9685 232.25 49.8802C232.857 50.7918 233.181 51.8637 233.181 52.9601C233.181 54.4304 232.599 55.8404 231.563 56.8801C230.527 57.9197 229.122 58.5038 227.656 58.5038V58.5038Z" fill="white"/>
<path d="M226.433 33.5573H208.636V28.956H226.433V23.7212H203.411V38.8H226.433V33.5573Z" fill="white"/>
<path d="M242.163 29.399V22.4614H236.93V40.2171H242.163V34.6496H250V29.399H242.163Z" fill="white"/>
<path d="M77.7087 18.0585L91.9229 26.3265L94.5353 21.7807L77.7087 12L60.8821 21.7807L63.4945 26.3265L77.7087 18.0585Z" fill="white"/>
<path d="M80.3206 35.292V33.1933H99.0256V28.1406H56.3987V33.1933H75.0958V35.292H56.3987V40.3526H93.8008V42.4513H56.3987V54.6711H99.0256V49.6105H61.6235V47.5119H99.0256V35.292H80.3206Z" fill="white"/>
<path d="M395.89 49.398V53.378H371.36V60.308H430.87V53.378H404.06V49.398H427.86V42.828H380.1V38.598H427.86V32.028H380.1V27.798H427.86V21.228H371.93V49.398H395.89Z" fill="white"/>
<path d="M564.75 40.998H505.27V47.938H556.58V60.308H564.75V40.998Z" fill="white"/>
<path d="M635.72 22.798H626.8V13.918H618.63V38.868H626.8V29.728H635.72V22.798Z" fill="white"/>
<path d="M495.41 35.3979H493.7V3.39789H485.52V10.5779H475.91V17.5079H485.55V24.2779H462.15C464.879 23.2115 467.15 21.2253 468.57 18.6626C469.99 16.0998 470.47 13.1215 469.927 10.2422C469.385 7.36301 467.854 4.76374 465.598 2.89362C463.343 1.02349 460.505 0 457.575 0C454.645 0 451.807 1.02349 449.552 2.89362C447.296 4.76374 445.765 7.36301 445.222 10.2422C444.68 13.1215 445.16 16.0998 446.58 18.6626C448 21.2253 450.271 23.2115 453 24.2779H438.4V30.8279H453.46V35.3879H438.4V41.9579H487.24V44.5579H438.4V60.2979H495.4V53.7279H446.57V51.1379H495.41V35.3979ZM457.55 8.17789C458.421 8.17789 459.272 8.43618 459.995 8.9201C460.719 9.40403 461.283 10.0918 461.616 10.8964C461.949 11.701 462.035 12.5862 461.865 13.44C461.694 14.2938 461.274 15.0777 460.658 15.6927C460.041 16.3076 459.256 16.7259 458.402 16.8946C457.548 17.0632 456.663 16.9746 455.859 16.6401C455.055 16.3055 454.369 15.74 453.887 15.0151C453.404 14.2902 453.148 13.4385 453.15 12.5679C453.15 11.9905 453.264 11.4189 453.485 10.8856C453.706 10.3523 454.031 9.86792 454.439 9.46014C454.848 9.05236 455.333 8.72922 455.867 8.50919C456.401 8.28916 456.973 8.17657 457.55 8.17789V8.17789ZM461.64 30.8279H485.52V35.3879H461.64V30.8279Z" fill="white"/>
<path d="M512.63 13.918V20.848H547.47V29.248H505.27V36.178H564.75V29.248H555.64V13.918H512.63Z" fill="white"/>
<path d="M605.08 32.048L592.49 20.848H605.08V13.918H571.58V20.848H584.17L571.58 32.048L577.01 38.158L588.33 28.088L599.65 38.158L605.08 32.048Z" fill="white"/>
<path d="M606.91 40.2876C603.983 40.2876 601.121 41.1556 598.687 42.7819C596.254 44.4081 594.357 46.7195 593.236 49.4239C592.116 52.1282 591.823 55.104 592.394 57.9749C592.965 60.8459 594.375 63.483 596.445 65.5528C598.514 67.6226 601.152 69.0322 604.023 69.6032C606.893 70.1743 609.869 69.8812 612.574 68.761C615.278 67.6408 617.589 65.7439 619.216 63.3101C620.842 60.8762 621.71 58.0148 621.71 55.0876C621.71 51.1624 620.151 47.398 617.375 44.6224C614.6 41.8469 610.835 40.2876 606.91 40.2876V40.2876ZM606.91 61.7076C605.601 61.7076 604.321 61.3194 603.232 60.5919C602.143 59.8645 601.295 58.8306 600.794 57.621C600.293 56.4113 600.162 55.0803 600.417 53.7961C600.673 52.512 601.303 51.3324 602.229 50.4066C603.155 49.4807 604.334 48.8503 605.618 48.5948C606.903 48.3394 608.234 48.4705 609.443 48.9715C610.653 49.4726 611.687 50.3211 612.414 51.4097C613.142 52.4984 613.53 53.7783 613.53 55.0876C613.53 56.8433 612.832 58.5272 611.591 59.7686C610.349 61.0101 608.666 61.7076 606.91 61.7076Z" fill="white"/>
<path d="M300.05 1.70759C283.11 1.70759 270.74 15.0976 270.74 32.0476C270.74 48.9976 283.11 61.9876 300.05 61.9876C304.695 61.9946 309.283 60.9576 313.473 58.9532C317.664 56.9488 321.35 54.0283 324.26 50.4076C323.62 49.8076 322 46.3376 316.54 46.3376C311.39 46.3376 310.23 51.4876 300.05 51.4876C290.05 51.4876 281.81 43.0276 281.81 32.0476C281.81 21.0676 290.08 12.2076 300.05 12.2076C309.14 12.2076 311.33 17.6076 316 17.6076C320.67 17.6076 323.41 13.8676 324 13.2876C321.136 9.66822 317.488 6.74567 313.331 4.73988C309.174 2.7341 304.616 1.69734 300 1.70759" fill="white"/>
<path d="M326.07 75.7177C326.74 75.5777 329.07 75.0077 332.29 74.0077C337.29 72.4477 345.02 69.0077 348.7 61.8577C348.7 61.8577 352.15 56.5677 352.08 45.2077V13.2077H352.57C356.57 13.2077 359.82 10.7777 359.82 6.93771V3.42773H336C332 3.42773 329.15 5.84771 329.15 9.68771V13.2077H339.77C339.77 13.2077 340.17 49.0877 339.72 52.9577C339.57 55.9077 338.29 62.9577 331.47 66.1977C325.87 68.8277 325.81 71.3277 325.53 75.1977C325.53 75.5477 325.72 75.6477 325.88 75.6577C325.94 75.688 326.004 75.7083 326.07 75.7177Z" fill="white"/>
</svg>
